<?xml version="1.0" encoding="UTF-8" standalone="no"?>
<!-- Created with Inkscape (http://www.inkscape.org/) -->

<svg
   width="192"
   height="192"
   viewBox="0 0 192 192"
   version="1.1"
   id="svg1"
   inkscape:version="1.3.2 (091e20e, 2023-11-25, custom)"
   sodipodi:docname="ptg.svg"
   inkscape:export-filename="ptg.png"
   inkscape:export-xdpi="256"
   inkscape:export-ydpi="256"
   xmlns:inkscape="http://www.inkscape.org/namespaces/inkscape"
   xmlns:sodipodi="http://sodipodi.sourceforge.net/DTD/sodipodi-0.dtd"
   xmlns="http://www.w3.org/2000/svg"
   xmlns:svg="http://www.w3.org/2000/svg">
  <sodipodi:namedview
     id="namedview1"
     pagecolor="#ffffff"
     bordercolor="#000000"
     borderopacity="0.25"
     inkscape:showpageshadow="2"
     inkscape:pageopacity="0.0"
     inkscape:pagecheckerboard="0"
     inkscape:deskcolor="#d1d1d1"
     inkscape:document-units="px"
     inkscape:zoom="3.3725678"
     inkscape:cx="139.6562"
     inkscape:cy="107.78138"
     inkscape:window-width="2560"
     inkscape:window-height="1369"
     inkscape:window-x="1912"
     inkscape:window-y="-8"
     inkscape:window-maximized="1"
     inkscape:current-layer="layer1" />
  <defs
     id="defs1">
    <rect
       x="335.05627"
       y="340.98645"
       width="151.22008"
       height="51.592735"
       id="rect543" />
    <rect
       x="211.70811"
       y="190.35941"
       width="91.325066"
       height="49.220654"
       id="rect542" />
    <rect
       x="109.70869"
       y="41.511395"
       width="280.52481"
       height="36.956041"
       id="rect541" />
  </defs>
  <g
     inkscape:label="Ebene 1"
     inkscape:groupmode="layer"
     id="layer1">
    <rect
       style="fill:#d40000;fill-opacity:0.690196;stroke:#6dd400;stroke-width:6.093;stroke-opacity:0.690196"
       id="rect1"
       width="197.97566"
       height="197.97566"
       x="-2.9186001"
       y="-2.9186001" />
    <path
       style="fill:#00ff00;fill-opacity:0.688725;stroke-width:0.164164"
       d="m 47.484012,35.500619 c 5.819941,6.582348 7.810326,31.220798 -1.452835,31.978066 C 36.024406,68.29674 31.056942,58.300466 31.273463,43.309217 31.464036,30.114542 41.213892,9.2240721 41.213892,9.2240721 c 0,0 -4.971851,13.5618919 6.27012,26.2765469 z"
       id="path20"
       sodipodi:nodetypes="scccs" />
    <path
       style="fill:#748fff;fill-opacity:0.688725;stroke-width:0.164164"
       d="m 47.484013,121.71595 c 5.81994,6.58234 7.810325,31.22079 -1.452835,31.97807 -10.006771,0.81804 -14.974236,-9.17822 -14.757715,-24.16948 0.190574,-13.19466 9.94043,-34.085137 9.94043,-34.085137 0,0 -4.971852,13.561897 6.27012,26.276547 z"
       id="path21"
       sodipodi:nodetypes="scccs" />
    <path
       style="fill:#ccff00;fill-opacity:0.688725;stroke-width:0.164164"
       d="m 125.3073,103.93959 c 5.81994,6.58235 7.81033,31.2208 -1.45284,31.97807 -10.00677,0.81805 -14.97423,-9.17822 -14.75771,-24.16947 0.19057,-13.194671 9.94043,-34.085141 9.94043,-34.085141 0,0 -4.97185,13.561892 6.27012,26.276541 z"
       id="path22"
       sodipodi:nodetypes="scccs" />
    <path
       style="fill:#d40000;fill-opacity:0.688725;stroke-width:0.164164"
       d="m 85.216516,66.387038 c 5.819942,6.582349 7.810327,31.220798 -1.452835,31.978066 -10.00677,0.818056 -14.974235,-9.17822 -14.757714,-24.169468 0.190574,-13.194675 9.940429,-34.085145 9.940429,-34.085145 0,0 -4.97185,13.561892 6.27012,26.276547 z"
       id="path23"
       sodipodi:nodetypes="scccs" />
    <path
       style="fill:#0000ff;fill-opacity:0.688725;stroke-width:0.164164"
       d="m 122.94902,27.279055 c 5.81994,6.582347 7.81032,31.220796 -1.45284,31.978064 -10.00677,0.818056 -14.97423,-9.178219 -14.75771,-24.169466 0.19057,-13.194675 9.94043,-34.0851455 9.94043,-34.0851455 0,0 -4.97185,13.5618925 6.27012,26.2765475 z"
       id="path24"
       sodipodi:nodetypes="scccs" />
    <path
       style="fill:#00ff00;fill-opacity:0.690196;stroke-width:0.164164"
       d="m 156.14636,151.26914 c 5.81995,6.58235 7.81033,31.2208 -1.45283,31.97807 -10.00677,0.81805 -14.97424,-9.17822 -14.75771,-24.16947 0.19057,-13.19467 9.94043,-34.08515 9.94043,-34.08515 0,0 -4.97186,13.5619 6.27011,26.27655 z"
       id="path26"
       sodipodi:nodetypes="scccs" />
    <path
       style="fill:#ff6600;fill-opacity:0.688725;stroke-width:0.164164"
       d="m 86.849173,149.93591 c 5.819941,6.58235 7.810327,31.22081 -1.452835,31.97808 -10.006774,0.81805 -14.974238,-9.17823 -14.757718,-24.16947 0.190575,-13.19468 9.94043,-34.08515 9.94043,-34.08515 0,0 -4.971851,13.56189 6.270123,26.27654 z"
       id="path27"
       sodipodi:nodetypes="scccs" />
    <path
       style="fill:#008000;fill-opacity:0.688725;stroke-width:0.164164"
       d="m 158.68605,66.831451 c 5.81995,6.582348 7.81033,31.220797 -1.45283,31.978066 -10.00677,0.818059 -14.97424,-9.178219 -14.75772,-24.169468 0.19058,-13.194675 9.94043,-34.085145 9.94043,-34.085145 0,0 -4.97185,13.561892 6.27012,26.276547 z"
       id="path28"
       sodipodi:nodetypes="scccs" />
    <ellipse
       style="fill:#917c6f;fill-opacity:0.690196;stroke-width:0.23479"
       id="path30"
       cx="47.609337"
       cy="72.330139"
       rx="9.6145325"
       ry="2.2220445" />
    <ellipse
       style="fill:#917c6f;fill-opacity:0.690196;stroke-width:0.245562"
       id="path31"
       cx="84.434807"
       cy="102.99435"
       rx="11.972814"
       ry="2.4442489" />
    <ellipse
       style="fill:#917c6f;fill-opacity:0.690196;stroke-width:0.273171"
       id="path32"
       cx="46.430195"
       cy="160.3231"
       rx="10.612267"
       ry="3.1108627" />
    <ellipse
       style="fill:#917c6f;fill-opacity:0.690196;stroke-width:0.338558"
       id="path33"
       cx="85.704651"
       cy="187.98756"
       rx="11.610002"
       ry="2.1109424" />
    <ellipse
       style="fill:#917c6f;fill-opacity:0.690196;stroke-width:0.281069"
       id="path34"
       cx="125.06981"
       cy="143.54668"
       rx="9.9773445"
       ry="2.7775557" />
    <ellipse
       style="fill:#917c6f;fill-opacity:0.690196;stroke-width:0.338558"
       id="path35"
       cx="155.27396"
       cy="188.20978"
       rx="9.7052355"
       ry="1.8887378" />
    <ellipse
       style="fill:#917c6f;fill-opacity:0.690196;stroke-width:0.338558"
       id="path36"
       cx="157.72295"
       cy="104.43868"
       rx="10.702969"
       ry="2.5553515" />
    <ellipse
       style="fill:#917c6f;fill-opacity:0.690196;stroke-width:0.338558"
       id="path37"
       cx="123.98137"
       cy="63.886372"
       rx="10.158751"
       ry="3.1108627" />
    <ellipse
       style="fill:#d40000;fill-opacity:0.690196;stroke:#d40000;stroke-width:0.338558;stroke-opacity:0.690196"
       id="path448"
       cx="91.146835"
       cy="95.328293"
       rx="0.9070313"
       ry="2.1109424" />
    <ellipse
       style="fill:#d40000;fill-opacity:0.690196;stroke:#d40000;stroke-width:0.338558;stroke-opacity:0.690196"
       id="path449"
       cx="94.593559"
       cy="88.773262"
       rx="1.0884376"
       ry="2.4442492" />
    <ellipse
       style="fill:#d40000;fill-opacity:0.690196;stroke:#d40000;stroke-width:0.338558;stroke-opacity:0.690196"
       id="path450"
       cx="96.679726"
       cy="82.440445"
       rx="1.1791407"
       ry="0.99992007" />
    <ellipse
       style="fill:#d40000;fill-opacity:0.690196;stroke:#d40000;stroke-width:0.338558;stroke-opacity:0.690196"
       id="path451"
       cx="91.600357"
       cy="80.88501"
       rx="1.1791407"
       ry="2.1109424" />
    <ellipse
       style="fill:#d40000;fill-opacity:0.690196;stroke:#d40000;stroke-width:0.338558;stroke-opacity:0.690196"
       id="path452"
       cx="65.659264"
       cy="84.218071"
       rx="1.3605469"
       ry="1.444329" />
    <ellipse
       style="fill:#d40000;fill-opacity:0.690196;stroke:#d40000;stroke-width:0.338558;stroke-opacity:0.690196"
       id="path453"
       cx="69.559494"
       cy="93.550667"
       rx="1.6326565"
       ry="0.55551112" />
    <ellipse
       style="fill:#d40000;fill-opacity:0.690196;stroke:#d40000;stroke-width:0.338558;stroke-opacity:0.690196"
       id="path454"
       cx="68.924576"
       cy="99.105782"
       rx="2.2675784"
       ry="0.99992007" />
    <ellipse
       style="fill:#d40000;fill-opacity:0.690196;stroke:#d40000;stroke-width:0.338558;stroke-opacity:0.690196"
       id="path455"
       cx="63.210278"
       cy="95.994919"
       rx="1.4512502"
       ry="2.5553515" />
    <ellipse
       style="fill:#d40000;fill-opacity:0.690196;stroke:#d40000;stroke-width:0.338558;stroke-opacity:0.690196"
       id="ellipse490"
       cx="104.84302"
       cy="122.65945"
       rx="1.3605469"
       ry="1.444329" />
    <ellipse
       style="fill:#d40000;fill-opacity:0.690196;stroke:#d40000;stroke-width:0.338558;stroke-opacity:0.690196"
       id="ellipse491"
       cx="108.74325"
       cy="131.99203"
       rx="1.6326565"
       ry="0.55551112" />
    <ellipse
       style="fill:#d40000;fill-opacity:0.690196;stroke:#d40000;stroke-width:0.338558;stroke-opacity:0.690196"
       id="ellipse492"
       cx="108.10834"
       cy="137.54715"
       rx="2.2675784"
       ry="0.99992007" />
    <ellipse
       style="fill:#d40000;fill-opacity:0.690196;stroke:#d40000;stroke-width:0.338558;stroke-opacity:0.690196"
       id="ellipse493"
       cx="102.39404"
       cy="134.43628"
       rx="1.4512502"
       ry="2.5553515" />
    <ellipse
       style="fill:#d40000;fill-opacity:0.690196;stroke:#d40000;stroke-width:0.338558;stroke-opacity:0.690196"
       id="ellipse494"
       cx="135.40997"
       cy="129.54779"
       rx="0.9070313"
       ry="2.1109424" />
    <ellipse
       style="fill:#d40000;fill-opacity:0.690196;stroke:#d40000;stroke-width:0.338558;stroke-opacity:0.690196"
       id="ellipse495"
       cx="133.23309"
       cy="121.43732"
       rx="1.0884376"
       ry="2.4442492" />
    <ellipse
       style="fill:#d40000;fill-opacity:0.690196;stroke:#d40000;stroke-width:0.338558;stroke-opacity:0.690196"
       id="ellipse496"
       cx="137.85895"
       cy="122.21503"
       rx="1.1791407"
       ry="0.99992007" />
    <ellipse
       style="fill:#d40000;fill-opacity:0.690196;stroke:#d40000;stroke-width:0.338558;stroke-opacity:0.690196"
       id="ellipse497"
       cx="136.2263"
       cy="115.10449"
       rx="1.1791407"
       ry="2.1109424" />
    <ellipse
       style="fill:#d40000;fill-opacity:0.690196;stroke:#d40000;stroke-width:0.338558;stroke-opacity:0.690196"
       id="ellipse498"
       cx="68.471054"
       cy="179.98819"
       rx="0.9070313"
       ry="2.1109424" />
    <ellipse
       style="fill:#d40000;fill-opacity:0.690196;stroke:#d40000;stroke-width:0.338558;stroke-opacity:0.690196"
       id="ellipse499"
       cx="55.772617"
       cy="64.108574"
       rx="1.0884376"
       ry="2.4442492" />
    <ellipse
       style="fill:#d40000;fill-opacity:0.690196;stroke:#d40000;stroke-width:0.338558;stroke-opacity:0.690196"
       id="ellipse500"
       cx="144.7524"
       cy="183.76567"
       rx="1.1791407"
       ry="0.99992007" />
    <ellipse
       style="fill:#d40000;fill-opacity:0.690196;stroke:#d40000;stroke-width:0.338558;stroke-opacity:0.690196"
       id="ellipse501"
       cx="68.924576"
       cy="169.989"
       rx="1.1791407"
       ry="2.1109424" />
    <ellipse
       style="fill:#d40000;fill-opacity:0.690196;stroke:#d40000;stroke-width:0.338558;stroke-opacity:0.690196"
       id="ellipse502"
       cx="74.276062"
       cy="181.98802"
       rx="0.9070313"
       ry="2.1109424" />
    <ellipse
       style="fill:#d40000;fill-opacity:0.690196;stroke:#d40000;stroke-width:0.338558;stroke-opacity:0.690196"
       id="ellipse503"
       cx="59.763554"
       cy="141.88013"
       rx="1.0884376"
       ry="2.4442492" />
    <ellipse
       style="fill:#d40000;fill-opacity:0.690196;stroke:#d40000;stroke-width:0.338558;stroke-opacity:0.690196"
       id="ellipse504"
       cx="138.40318"
       cy="173.09985"
       rx="1.1791407"
       ry="0.99992007" />
    <ellipse
       style="fill:#d40000;fill-opacity:0.690196;stroke:#d40000;stroke-width:0.338558;stroke-opacity:0.690196"
       id="ellipse505"
       cx="94.865677"
       cy="168.87798"
       rx="1.1791407"
       ry="2.1109424" />
    <ellipse
       style="fill:#d40000;fill-opacity:0.690196;stroke:#d40000;stroke-width:0.338558;stroke-opacity:0.690196"
       id="ellipse506"
       cx="98.947311"
       cy="163.54507"
       rx="0.9070313"
       ry="2.1109424" />
    <ellipse
       style="fill:#d40000;fill-opacity:0.690196;stroke:#d40000;stroke-width:0.338558;stroke-opacity:0.690196"
       id="ellipse507"
       cx="56.135429"
       cy="136.76942"
       rx="1.0884376"
       ry="2.4442492" />
    <ellipse
       style="fill:#d40000;fill-opacity:0.690196;stroke:#d40000;stroke-width:0.338558;stroke-opacity:0.690196"
       id="ellipse508"
       cx="162.71161"
       cy="171.32224"
       rx="1.1791407"
       ry="0.99992007" />
    <ellipse
       style="fill:#d40000;fill-opacity:0.690196;stroke:#d40000;stroke-width:0.338558;stroke-opacity:0.690196"
       id="ellipse509"
       cx="30.829258"
       cy="71.330215"
       rx="1.1791407"
       ry="2.1109424" />
    <ellipse
       style="fill:#d40000;fill-opacity:0.690196;stroke:#d40000;stroke-width:0.338558;stroke-opacity:0.690196"
       id="ellipse510"
       cx="93.867935"
       cy="178.87718"
       rx="0.9070313"
       ry="2.1109424" />
    <ellipse
       style="fill:#d40000;fill-opacity:0.690196;stroke:#d40000;stroke-width:0.338558;stroke-opacity:0.690196"
       id="ellipse511"
       cx="56.135429"
       cy="147.65744"
       rx="1.0884376"
       ry="2.4442492" />
    <ellipse
       style="fill:#d40000;fill-opacity:0.690196;stroke:#d40000;stroke-width:0.338558;stroke-opacity:0.690196"
       id="ellipse512"
       cx="164.34427"
       cy="179.09938"
       rx="1.1791407"
       ry="0.99992007" />
    <ellipse
       style="fill:#d40000;fill-opacity:0.690196;stroke:#d40000;stroke-width:0.338558;stroke-opacity:0.690196"
       id="ellipse513"
       cx="31.73629"
       cy="63.553062"
       rx="1.1791407"
       ry="2.1109424" />
    <ellipse
       style="fill:#d40000;fill-opacity:0.690196;stroke:#d40000;stroke-width:0.338558;stroke-opacity:0.690196"
       id="ellipse514"
       cx="60.85199"
       cy="61.553211"
       rx="0.9070313"
       ry="2.1109424" />
    <ellipse
       style="fill:#d40000;fill-opacity:0.690196;stroke:#d40000;stroke-width:0.338558;stroke-opacity:0.690196"
       id="ellipse515"
       cx="130.87482"
       cy="50.109688"
       rx="1.0884376"
       ry="2.4442492" />
    <ellipse
       style="fill:#d40000;fill-opacity:0.690196;stroke:#d40000;stroke-width:0.338558;stroke-opacity:0.690196"
       id="ellipse516"
       cx="140.58005"
       cy="180.2104"
       rx="1.1791407"
       ry="0.99992007" />
    <ellipse
       style="fill:#d40000;fill-opacity:0.690196;stroke:#d40000;stroke-width:0.338558;stroke-opacity:0.690196"
       id="ellipse517"
       cx="34.820194"
       cy="71.330215"
       rx="1.1791407"
       ry="2.1109424" />
    <ellipse
       style="fill:#d40000;fill-opacity:0.690196;stroke:#d40000;stroke-width:0.338558;stroke-opacity:0.690196"
       id="ellipse518"
       cx="56.679653"
       cy="55.775894"
       rx="0.9070313"
       ry="2.1109424" />
    <ellipse
       style="fill:#d40000;fill-opacity:0.690196;stroke:#d40000;stroke-width:0.338558;stroke-opacity:0.690196"
       id="ellipse519"
       cx="110.01309"
       cy="59.44228"
       rx="1.0884376"
       ry="2.4442492" />
    <ellipse
       style="fill:#d40000;fill-opacity:0.690196;stroke:#d40000;stroke-width:0.338558;stroke-opacity:0.690196"
       id="ellipse520"
       cx="100.48926"
       cy="172.65544"
       rx="1.1791407"
       ry="0.99992007" />
    <ellipse
       style="fill:#d40000;fill-opacity:0.690196;stroke:#d40000;stroke-width:0.338558;stroke-opacity:0.690196"
       id="ellipse521"
       cx="30.28504"
       cy="155.76791"
       rx="1.1791407"
       ry="2.1109424" />
    <ellipse
       style="fill:#d40000;fill-opacity:0.690196;stroke:#d40000;stroke-width:0.338558;stroke-opacity:0.690196"
       id="ellipse522"
       cx="29.46871"
       cy="146.43532"
       rx="0.9070313"
       ry="2.1109424" />
    <ellipse
       style="fill:#d40000;fill-opacity:0.690196;stroke:#d40000;stroke-width:0.338558;stroke-opacity:0.690196"
       id="ellipse523"
       cx="133.05168"
       cy="54.998184"
       rx="1.0884376"
       ry="2.4442492" />
    <ellipse
       style="fill:#d40000;fill-opacity:0.690196;stroke:#d40000;stroke-width:0.338558;stroke-opacity:0.690196"
       id="ellipse524"
       cx="134.23083"
       cy="47.776546"
       rx="1.1791407"
       ry="0.99992007" />
    <ellipse
       style="fill:#d40000;fill-opacity:0.690196;stroke:#d40000;stroke-width:0.338558;stroke-opacity:0.690196"
       id="ellipse525"
       cx="106.65707"
       cy="49.776382"
       rx="1.1791407"
       ry="2.1109424" />
    <ellipse
       style="fill:#d40000;fill-opacity:0.690196;stroke:#d40000;stroke-width:0.338558;stroke-opacity:0.690196"
       id="ellipse526"
       cx="33.641052"
       cy="151.99043"
       rx="0.9070313"
       ry="2.1109424" />
    <ellipse
       style="fill:#d40000;fill-opacity:0.690196;stroke:#d40000;stroke-width:0.338558;stroke-opacity:0.690196"
       id="ellipse527"
       cx="105.29652"
       cy="55.442596"
       rx="1.0884376"
       ry="2.4442492" />
    <ellipse
       style="fill:#d40000;fill-opacity:0.690196;stroke:#d40000;stroke-width:0.338558;stroke-opacity:0.690196"
       id="ellipse528"
       cx="102.84754"
       cy="49.776382"
       rx="1.1791407"
       ry="0.99992007" />
    <ellipse
       style="fill:#d40000;fill-opacity:0.690196;stroke:#d40000;stroke-width:0.338558;stroke-opacity:0.690196"
       id="ellipse529"
       cx="130.42131"
       cy="42.665844"
       rx="1.1791407"
       ry="2.1109424" />
    <ellipse
       style="fill:#d40000;fill-opacity:0.690196;stroke:#d40000;stroke-width:0.338558;stroke-opacity:0.690196"
       id="ellipse530"
       cx="136.77052"
       cy="96.217117"
       rx="1.1791407"
       ry="0.99992007" />
    <ellipse
       style="fill:#d40000;fill-opacity:0.690196;stroke:#d40000;stroke-width:0.338558;stroke-opacity:0.690196"
       id="ellipse531"
       cx="142.21271"
       cy="100.439"
       rx="1.1791407"
       ry="0.99992007" />
    <ellipse
       style="fill:#d40000;fill-opacity:0.690196;stroke:#d40000;stroke-width:0.338558;stroke-opacity:0.690196"
       id="ellipse532"
       cx="142.39412"
       cy="94.661682"
       rx="1.1791407"
       ry="0.99992007" />
    <ellipse
       style="fill:#d40000;fill-opacity:0.690196;stroke:#d40000;stroke-width:0.338558;stroke-opacity:0.690196"
       id="ellipse533"
       cx="145.2966"
       cy="100.2168"
       rx="1.1791407"
       ry="0.99992007" />
    <ellipse
       style="fill:#d40000;fill-opacity:0.690196;stroke:#d40000;stroke-width:0.338558;stroke-opacity:0.690196"
       id="ellipse534"
       cx="166.33974"
       cy="175.98851"
       rx="1.1791407"
       ry="0.99992007" />
    <ellipse
       style="fill:#d40000;fill-opacity:0.690196;stroke:#d40000;stroke-width:0.338558;stroke-opacity:0.690196"
       id="ellipse535"
       cx="136.40771"
       cy="180.65482"
       rx="1.1791407"
       ry="0.99992007" />
    <ellipse
       style="fill:#d40000;fill-opacity:0.690196;stroke:#d40000;stroke-width:0.338558;stroke-opacity:0.690196"
       id="ellipse536"
       cx="166.97466"
       cy="90.550903"
       rx="1.0884376"
       ry="2.4442492" />
    <ellipse
       style="fill:#d40000;fill-opacity:0.690196;stroke:#d40000;stroke-width:0.338558;stroke-opacity:0.690196"
       id="ellipse537"
       cx="163.70935"
       cy="96.994827"
       rx="1.0884376"
       ry="2.4442492" />
    <ellipse
       style="fill:#d40000;fill-opacity:0.690196;stroke:#d40000;stroke-width:0.338558;stroke-opacity:0.690196"
       id="ellipse538"
       cx="169.96786"
       cy="98.439148"
       rx="1.1791407"
       ry="2.1109424" />
    <rect
       style="fill:#484537;fill-opacity:0.690196;stroke:#d40000;stroke-width:0.338558;stroke-opacity:0.690196"
       id="rect538"
       width="191.02078"
       height="192.20685"
       x="0.26230159"
       y="-0.33072087"
       rx="28.347282"
       ry="96.103424" />
    <rect
       style="fill:#484537;fill-opacity:0.690196;stroke:#d40000;stroke-width:0.338558;stroke-opacity:0.690196"
       id="rect540"
       width="0.7256251"
       height="1.1110222"
       x="142.48482"
       y="161.21191"
       rx="31.975405"
       ry="1.1110222" />
    <path
       style="fill:#24221c;fill-opacity:0.690196;stroke:#d40000;stroke-width:0.200772;stroke-opacity:0.690196"
       d="m 26.188226,191.20456 c -2.372139,-0.7055 -4.37369,-2.18285 -6.763642,-4.99228 C 10.332332,175.52418 3.5285492,149.95623 1.2710669,117.99316 0.29048715,104.10938 0.29035832,87.45038 1.2707303,73.552261 3.4640642,42.45842 10.004148,17.235873 18.749267,6.1443564 21.24332,2.9811256 23.462359,1.2204523 25.928915,0.4477378 27.338331,0.00620131 27.905598,0.00258572 95.7727,0.00258572 c 67.8671,0 68.43437,0.00361318 69.84379,0.44515208 8.29246,2.5978373 15.99109,18.2450442 20.66252,41.9959002 5.49184,27.92209 6.28078,63.460932 2.08659,93.992482 -3.22319,23.46314 -9.05069,41.31938 -16.24478,49.77616 -2.43033,2.85689 -4.39971,4.29614 -6.84519,5.00254 -1.61646,0.46694 -137.516599,0.4569 -139.087404,-0.0103 z m 67.005043,-1.54048 c 1.175422,-0.19328 2.563178,-0.52458 3.083907,-0.73622 0.805185,-0.32725 0.946774,-0.46787 0.946774,-0.9403 0,-0.47271 -0.141663,-0.61309 -0.950353,-0.94174 -2.000397,-0.81296 -5.108568,-1.14656 -10.659646,-1.14411 -7.175038,0.003 -11.337079,0.74048 -11.48706,2.03493 -0.046,0.39704 0.07754,0.57419 0.5797,0.83119 0.845429,0.43269 3.384768,0.95848 5.838733,1.20898 2.818537,0.28771 10.089787,0.10791 12.647945,-0.31273 z m 66.343731,0.32051 c 3.4431,-0.36508 5.4422,-1.0135 5.4422,-1.76521 0,-2.16465 -14.86161,-2.7545 -18.82091,-0.74699 -1.23906,0.62824 -0.46225,1.53426 1.77014,2.0646 2.6006,0.61781 8.02927,0.82714 11.60857,0.4476 z m -13.95927,-5.2247 c 0.40909,-0.25913 0.53521,-0.49341 0.53521,-0.99422 0,-0.50081 -0.12612,-0.73508 -0.53521,-0.99421 -0.29436,-0.18646 -0.66577,-0.33901 -0.82534,-0.33901 -0.15956,0 -0.53097,0.15255 -0.82533,0.33901 -0.73471,0.46537 -0.75373,1.50142 -0.0363,1.97814 0.64208,0.42668 1.02595,0.42902 1.68701,0.0103 z M 74.845532,184.0075 c 0.37808,-0.37499 0.42826,-0.61162 0.42826,-2.01946 0,-1.40785 -0.05018,-1.64447 -0.42826,-2.01947 -0.235545,-0.23363 -0.491805,-0.42478 -0.569474,-0.42478 -0.07767,0 -0.333929,0.19115 -0.569474,0.42478 -0.378081,0.375 -0.42826,0.61162 -0.42826,2.01947 0,1.40784 0.05018,1.64447 0.42826,2.01946 0.235545,0.23364 0.491808,0.42479 0.569474,0.42479 0.07767,0 0.333929,-0.19115 0.569474,-0.42479 z m 82.126168,-1.4599 c 2.21282,-1.4944 3.51445,-4.58226 4.02472,-9.54792 0.42126,-4.09944 -0.18439,-10.47759 -1.38624,-14.5988 -1.00796,-3.45636 -1.95863,-5.32608 -4.15113,-8.16426 -1.12801,-1.4602 -2.41535,-3.28782 -2.86076,-4.06138 -3.38675,-5.88185 -4.49183,-12.58972 -3.14895,-19.11433 0.30399,-1.47701 0.34498,-1.90832 0.15212,-1.60065 -0.62725,1.00061 -4.60993,11.21993 -5.79578,14.87162 -2.95661,9.10459 -3.9164,14.05556 -3.89703,20.10232 0.0345,10.76655 2.8125,18.24841 7.92765,21.35105 1.97791,1.19972 3.33721,1.53365 5.98641,1.47063 2.03076,-0.0483 2.24212,-0.0958 3.14899,-0.70828 z m -87.931169,-0.53993 c 0.378081,-0.37501 0.42826,-0.61163 0.42826,-2.01948 0,-1.40784 -0.05018,-1.64447 -0.42826,-2.01946 -0.235545,-0.23363 -0.491805,-0.42479 -0.569474,-0.42479 -0.07767,0 -0.333929,0.19116 -0.569474,0.42479 -0.378081,0.37499 -0.428261,0.61162 -0.428261,2.01946 0,1.40785 0.05018,1.64447 0.428261,2.01948 0.235545,0.23362 0.491808,0.42478 0.569474,0.42478 0.07767,0 0.333929,-0.19116 0.569474,-0.42478 z m 17.942738,-0.44769 c 1.293508,-0.60203 2.09623,-1.42058 2.915241,-2.97273 1.964025,-3.72214 2.477559,-10.28682 1.342065,-17.15608 -0.534626,-3.23425 -1.11116,-5.298 -2.21835,-7.94075 -0.656797,-1.5677 -1.22699,-2.47599 -2.944578,-4.69057 -3.333747,-4.2984 -5.024011,-7.80484 -6.013443,-12.47483 -0.613738,-2.89676 -0.590107,-7.54947 0.05348,-10.53145 0.315033,-1.45966 0.37116,-1.961 0.18657,-1.66654 -0.630554,1.00589 -4.61167,11.22606 -5.793022,14.87162 -3.223029,9.94605 -4.193156,15.67131 -3.842965,22.67944 0.473069,9.46718 3.182677,15.93029 7.870835,18.77394 1.812842,1.09959 3.291434,1.49575 5.666999,1.51834 1.421143,0.0135 2.073508,-0.0829 2.777163,-0.41039 z m 50.249781,0.0891 c 0.40909,-0.25914 0.53521,-0.49341 0.53521,-0.99422 0,-0.5008 -0.12612,-0.73509 -0.53521,-0.99421 -0.29438,-0.18646 -0.66577,-0.33901 -0.82535,-0.33901 -0.15957,0 -0.53096,0.15255 -0.82533,0.33901 -0.7347,0.46537 -0.75374,1.50141 -0.0363,1.97814 0.64209,0.42668 1.02596,0.42901 1.68703,0.0103 z m 4.17234,-0.44441 c 0.40909,-0.25914 0.53521,-0.49341 0.53521,-0.99422 0,-0.5008 -0.12612,-0.73509 -0.53521,-0.99421 -0.29437,-0.18646 -0.66577,-0.33901 -0.82534,-0.33901 -0.15957,0 -0.53097,0.15255 -0.82534,0.33901 -0.73469,0.46538 -0.75373,1.50142 -0.0363,1.97814 0.64209,0.42668 1.02595,0.42901 1.68702,0.0103 z M 94.437408,180.8967 c 0.378081,-0.37501 0.42826,-0.61163 0.42826,-2.01947 0,-1.40785 -0.05018,-1.64447 -0.42826,-2.01948 -0.235545,-0.23363 -0.491805,-0.42477 -0.569474,-0.42477 -0.07767,0 -0.333929,0.19114 -0.569474,0.42477 -0.378078,0.37501 -0.42826,0.61163 -0.42826,2.01948 0,1.40784 0.05018,1.64446 0.42826,2.01947 0.235545,0.23363 0.491808,0.42477 0.569474,0.42477 0.07767,0 0.333929,-0.19114 0.569474,-0.42477 z m 70.732202,-0.80306 c 0.40909,-0.25912 0.53521,-0.49341 0.53521,-0.99421 0,-0.50081 -0.12612,-0.73508 -0.53521,-0.99422 -0.29437,-0.18645 -0.66577,-0.33901 -0.82534,-0.33901 -0.15957,0 -0.53097,0.15256 -0.82533,0.33901 -0.73471,0.46538 -0.75374,1.50143 -0.0363,1.97814 0.64209,0.42669 1.02595,0.42902 1.68702,0.0103 z m 1.99546,-3.11086 c 0.4091,-0.25913 0.53522,-0.49341 0.53522,-0.99421 0,-0.50081 -0.12612,-0.73509 -0.53522,-0.99422 -0.29436,-0.18645 -0.66576,-0.33901 -0.82533,-0.33901 -0.15957,0 -0.53097,0.15256 -0.82533,0.33901 -0.73471,0.46538 -0.75374,1.50142 -0.0363,1.97815 0.64208,0.42668 1.02595,0.42901 1.68701,0.0103 z m -27.93655,-2.88866 c 0.40908,-0.25913 0.5352,-0.49341 0.5352,-0.99421 0,-0.50081 -0.12612,-0.73508 -0.5352,-0.99422 -0.29438,-0.18645 -0.66577,-0.33901 -0.82535,-0.33901 -0.15957,0 -0.53096,0.15256 -0.82533,0.33901 -0.7347,0.46538 -0.75374,1.50142 -0.0363,1.97815 0.64209,0.42668 1.02596,0.42901 1.68703,0.0103 z m -37.91392,-0.4444 c 0.40909,-0.25914 0.53521,-0.49341 0.53521,-0.99422 0,-0.50081 -0.12612,-0.73509 -0.53521,-0.99422 -0.29437,-0.18644 -0.66577,-0.33901 -0.82534,-0.33901 -0.15957,0 -0.530966,0.15257 -0.825334,0.33901 -0.734698,0.46538 -0.753734,1.50142 -0.03634,1.97815 0.642084,0.42668 1.025954,0.42901 1.687014,0.0103 z m 62.22235,-1.33323 c 0.4091,-0.25913 0.53521,-0.49341 0.53521,-0.99422 0,-0.5008 -0.12611,-0.73509 -0.53521,-0.99421 -0.29436,-0.18646 -0.66576,-0.33901 -0.82533,-0.33901 -0.15957,0 -0.53098,0.15255 -0.82534,0.33901 -0.7347,0.46538 -0.75374,1.50142 -0.0363,1.97814 0.64208,0.42668 1.02595,0.42902 1.68701,0.0103 z m -93.782094,-0.53274 c 0.448897,-0.54986 0.530263,-0.82526 0.530263,-1.79473 0,-0.96949 -0.08137,-1.24488 -0.530263,-1.79473 -0.291645,-0.35724 -0.665271,-0.64952 -0.830284,-0.64952 -0.16501,0 -0.538636,0.29228 -0.83028,0.64952 -0.4489,0.54985 -0.530267,0.82524 -0.530267,1.79473 0,0.96947 0.08137,1.24487 0.530267,1.79473 0.291644,0.35723 0.66527,0.64951 0.83028,0.64951 0.165013,0 0.538639,-0.29228 0.830284,-0.64951 z m 25.941096,-1.11103 c 0.4489,-0.54986 0.530263,-0.82524 0.530263,-1.79473 0,-0.96948 -0.08136,-1.24486 -0.530263,-1.79472 -0.291645,-0.35724 -0.665271,-0.64953 -0.830284,-0.64953 -0.16501,0 -0.538636,0.29229 -0.83028,0.64953 -0.4489,0.54986 -0.530267,0.82524 -0.530267,1.79472 0,0.96949 0.08137,1.24487 0.530267,1.79473 0.291644,0.35724 0.66527,0.64952 0.83028,0.64952 0.165013,0 0.538639,-0.29228 0.830284,-0.64952 z m 3.820833,-5.10816 c 0.37808,-0.375 0.428259,-0.61163 0.428259,-2.01948 0,-1.40784 -0.05018,-1.64446 -0.428259,-2.01947 -0.235546,-0.23363 -0.491806,-0.42477 -0.569475,-0.42477 -0.07767,0 -0.333929,0.19114 -0.569474,0.42477 -0.37808,0.37501 -0.42826,0.61163 -0.42826,2.01947 0,1.40785 0.05018,1.64448 0.42826,2.01948 0.235545,0.23363 0.491808,0.42477 0.569474,0.42477 0.07767,0 0.333929,-0.19114 0.569475,-0.42477 z m -47.281588,-2.56068 c 3.246164,-0.66596 4.716564,-1.50169 4.716564,-2.68076 0,-1.91523 -3.979265,-3.08014 -10.521565,-3.08014 -4.050243,0 -6.177876,0.27272 -8.360721,1.07164 -1.842504,0.67437 -2.675182,1.84453 -1.981078,2.78399 0.685745,0.92817 3.243998,1.80913 6.4506,2.22136 2.114793,0.27186 7.72111,0.0891 9.6962,-0.31609 z M 31.11532,157.56264 c 0.448899,-0.54986 0.530265,-0.82525 0.530265,-1.79473 0,-0.96948 -0.08137,-1.24488 -0.530265,-1.79473 -0.291645,-0.35723 -0.665271,-0.64952 -0.830281,-0.64952 -0.165011,0 -0.538638,0.29229 -0.830283,0.64952 -0.448899,0.54985 -0.530265,0.82525 -0.530265,1.79473 0,0.96948 0.08137,1.24487 0.530265,1.79473 0.291645,0.35723 0.665272,0.64952 0.830283,0.64952 0.16501,0 0.538636,-0.29229 0.830281,-0.64952 z m 3.095209,-3.55274 c 0.378079,-0.37499 0.428259,-0.61162 0.428259,-2.01946 0,-1.40785 -0.05018,-1.64448 -0.428259,-2.01948 -0.235546,-0.23362 -0.491808,-0.42478 -0.569475,-0.42478 -0.07767,0 -0.333929,0.19116 -0.569474,0.42478 -0.37808,0.375 -0.42826,0.61163 -0.42826,2.01948 0,1.40784 0.05018,1.64447 0.42826,2.01946 0.235545,0.23363 0.491807,0.42479 0.569474,0.42479 0.07767,0 0.333929,-0.19116 0.569475,-0.42479 z m 13.375448,-0.65493 c 2.648493,-1.23267 4.231198,-4.57843 4.749749,-10.04075 0.762015,-8.02693 -1.656226,-18.39076 -5.173958,-22.174 -2.931972,-3.15326 -5.561964,-8.45442 -6.45207,-13.00512 -0.709184,-3.62573 -0.63187,-8.04226 0.198908,-11.362473 0.487298,-1.947492 0.09226,-1.18826 -1.913642,3.677903 -3.260848,7.91056 -5.9402,16.40453 -7.110765,22.54222 -0.483659,2.53601 -0.508282,2.92734 -0.50332,7.99936 0.0046,4.67618 0.05513,5.61339 0.410509,7.61054 1.204094,6.76661 3.69646,11.40279 7.302388,13.58353 1.893829,1.14532 3.349139,1.54141 5.747169,1.56423 1.398517,0.0133 2.076773,-0.0844 2.745032,-0.39544 z m 9.288809,-3.49338 c 0.382969,-0.49933 0.439787,-0.78409 0.439787,-2.20414 0,-1.42005 -0.05682,-1.70482 -0.439787,-2.20415 -0.241883,-0.31537 -0.574591,-0.57341 -0.739354,-0.57341 -0.164762,0 -0.497473,0.25804 -0.739357,0.57341 -0.382965,0.49933 -0.439784,0.7841 -0.439784,2.20415 0,1.42005 0.05682,1.70481 0.439784,2.20414 0.241884,0.31538 0.574595,0.57341 0.739357,0.57341 0.164763,0 0.497471,-0.25803 0.739354,-0.57341 z m -26.836602,-1.4068 c 0.37808,-0.375 0.42826,-0.61162 0.42826,-2.01946 0,-1.40785 -0.05018,-1.64447 -0.42826,-2.01947 -0.235545,-0.23363 -0.491807,-0.42479 -0.569474,-0.42479 -0.07767,0 -0.333929,0.19116 -0.569474,0.42479 -0.37808,0.375 -0.42826,0.61162 -0.42826,2.01947 0,1.40784 0.05018,1.64446 0.42826,2.01946 0.235545,0.23363 0.491807,0.42479 0.569474,0.42479 0.07767,0 0.333929,-0.19116 0.569474,-0.42479 z m 100.791406,-2.56453 c 5.59917,-1.15338 5.59917,-3.54942 0,-4.68051 -6.01669,-1.21541 -14.60763,-0.14503 -15.63509,1.94806 -0.60775,1.23809 1.78479,2.46821 5.91329,3.04031 2.08258,0.28858 7.68802,0.11108 9.7218,-0.30786 z m -70.326678,-1.80598 c 0.382968,-0.49933 0.439787,-0.7841 0.439787,-2.20415 0,-1.42005 -0.05682,-1.70481 -0.439787,-2.20415 -0.241883,-0.31537 -0.574592,-0.5734 -0.739354,-0.5734 -0.164762,0 -0.497474,0.25803 -0.739357,0.5734 -0.382965,0.49934 -0.439784,0.7841 -0.439784,2.20415 0,1.42005 0.05682,1.70482 0.439784,2.20415 0.241883,0.31537 0.574595,0.57341 0.739357,0.57341 0.164762,0 0.497471,-0.25804 0.739354,-0.57341 z m -3.628126,-5.1107 c 0.382969,-0.49933 0.439787,-0.7841 0.439787,-2.20415 0,-1.42005 -0.05682,-1.70481 -0.439787,-2.20414 -0.241883,-0.31538 -0.574591,-0.57342 -0.739354,-0.57342 -0.164762,0 -0.497473,0.25804 -0.739357,0.57342 -0.382965,0.49933 -0.439784,0.78409 -0.439784,2.20414 0,1.42005 0.05682,1.70482 0.439784,2.20415 0.241884,0.31537 0.574595,0.57341 0.739357,0.57341 0.164763,0 0.497471,-0.25804 0.739354,-0.57341 z m 53.074164,-0.57301 c 0.70595,-0.41445 0.71123,-1.28931 0.0102,-1.70083 -1.73409,-1.01806 -4.8725,-0.0921 -4.18866,1.23587 0.45763,0.88867 2.97881,1.16922 4.1784,0.46496 z m -6.6054,-1.72402 c 0.56458,-0.6179 0.59243,-0.72321 0.59243,-2.24027 0,-1.51706 -0.0278,-1.62236 -0.59243,-2.24026 -0.32584,-0.35662 -0.75312,-0.64839 -0.94952,-0.64839 -0.1964,0 -0.62368,0.29177 -0.94952,0.64839 -0.56458,0.6179 -0.59243,0.7232 -0.59243,2.24026 0,1.51706 0.0278,1.62237 0.59243,2.24027 0.32584,0.35661 0.75312,0.64839 0.94952,0.64839 0.1964,0 0.62368,-0.29178 0.94952,-0.64839 z m 22.06571,-1.09793 c 1.26527,-0.58889 2.16158,-1.50133 2.96038,-3.01365 2.24597,-4.25219 2.55239,-12.29337 0.76273,-20.01582 -0.9373,-4.04453 -2.43142,-7.18145 -4.70972,-9.88811 -2.91523,-3.463341 -4.89513,-7.61086 -5.90835,-12.376903 -0.60547,-2.848033 -0.57804,-7.52362 0.0615,-10.486896 0.30791,-1.426628 0.36819,-1.954329 0.19038,-1.666534 -0.14312,0.231636 -1.17385,2.670973 -2.29051,5.420757 -3.24668,7.994902 -5.55754,15.39694 -6.76365,21.664926 -0.48959,2.54435 -0.51284,2.91067 -0.50786,7.99937 0.006,5.9061 0.24278,7.94837 1.36213,11.73757 1.67505,5.67034 5.0332,9.63314 9.06132,10.69285 1.79208,0.47145 4.69645,0.43751 5.78164,-0.0675 z m -15.53222,-2.93165 c 1.32462,-0.4506 0.5223,-1.54128 -1.13379,-1.54128 -0.91451,0 -1.81406,0.44154 -1.81406,0.89043 0,0.73798 1.63229,1.09836 2.94785,0.65085 z m 26.1024,-1.07971 c 0.37809,-0.375 0.42826,-0.61163 0.42826,-2.01948 0,-1.40784 -0.0502,-1.64447 -0.42826,-2.01946 -0.23554,-0.23363 -0.4918,-0.42479 -0.56947,-0.42479 -0.0777,0 -0.33393,0.19116 -0.56947,0.42479 -0.37808,0.37499 -0.42827,0.61162 -0.42827,2.01946 0,1.40785 0.0502,1.64448 0.42827,2.01948 0.23554,0.23362 0.4918,0.42478 0.56947,0.42478 0.0777,0 0.33393,-0.19116 0.56947,-0.42478 z m -30.31372,-7.46753 c 0.57855,-0.36646 0.82366,-1.12268 0.64558,-1.99175 -0.11296,-0.55132 -0.92108,-1.22617 -1.46829,-1.22617 -0.15957,0 -0.52978,0.15181 -0.8227,0.33735 -0.92861,0.58819 -0.95,2.26308 -0.0367,2.8701 0.63917,0.42481 1.02418,0.42721 1.68209,0.0105 z m 28.30674,-0.45826 c 0.38296,-0.49934 0.43977,-0.78409 0.43977,-2.20414 0,-1.42005 -0.0568,-1.70482 -0.43977,-2.20415 -0.24189,-0.31538 -0.5746,-0.57341 -0.73936,-0.57341 -0.16477,0 -0.49748,0.25803 -0.73936,0.57341 -0.38297,0.49933 -0.43978,0.7841 -0.43978,2.20415 0,1.42005 0.0568,1.7048 0.43978,2.20414 0.24188,0.31537 0.57459,0.5734 0.73936,0.5734 0.16476,0 0.49747,-0.25803 0.73936,-0.5734 z m 4.71183,-0.43222 c 0.40909,-0.25913 0.53521,-0.4934 0.53521,-0.99421 0,-0.50081 -0.12612,-0.73509 -0.53521,-0.99422 -0.29437,-0.18645 -0.66577,-0.33901 -0.82534,-0.33901 -0.15957,0 -0.53097,0.15256 -0.82533,0.33901 -0.7347,0.46538 -0.75374,1.50143 -0.0364,1.97815 0.64208,0.42667 1.02595,0.42902 1.68702,0.0103 z m -1.62771,-6.31003 c 0.4489,-0.54986 0.53026,-0.82524 0.53026,-1.79472 0,-0.96949 -0.0814,-1.24488 -0.53026,-1.79473 -0.29164,-0.35725 -0.66527,-0.64952 -0.83028,-0.64952 -0.16501,0 -0.53864,0.29227 -0.83029,0.64952 -0.44889,0.54985 -0.53026,0.82524 -0.53026,1.79473 0,0.96948 0.0814,1.24486 0.53026,1.79472 0.29165,0.35724 0.66528,0.64953 0.83029,0.64953 0.16501,0 0.53864,-0.29229 0.83028,-0.64953 z m 27.19698,-10.3594 c 3.01562,-0.56613 4.56015,-1.51252 4.0637,-2.49 -0.80729,-1.58956 -8.36392,-2.6887 -14.28328,-2.07758 -4.60055,0.47499 -6.9233,1.30247 -6.9233,2.46645 0,1.07868 2.27656,1.96368 6.2638,2.43499 2.40707,0.28453 8.59696,0.0946 10.87908,-0.33386 z m -75.283593,-1.21538 c 4.314636,-0.39497 7.08309,-1.1855 7.371097,-2.10482 0.294639,-0.94051 -1.17811,-1.65378 -4.69218,-2.2725 -1.503535,-0.26472 -3.411036,-0.35988 -7.214074,-0.35988 -3.803038,0 -5.710541,0.0952 -7.214077,0.35988 -3.514067,0.61872 -4.986815,1.33199 -4.692177,2.2725 0.522142,1.6667 9.154768,2.77184 16.441411,2.10482 z m 54.068073,-3.89122 c 0.4091,-0.25913 0.53521,-0.49341 0.53521,-0.99422 0,-0.500812 -0.12611,-0.735084 -0.53521,-0.994217 -0.29436,-0.186451 -0.66576,-0.33901 -0.82533,-0.33901 -0.15957,0 -0.53097,0.152559 -0.82534,0.33901 -0.7347,0.465375 -0.75373,1.501417 -0.0363,1.978147 0.64208,0.42668 1.02595,0.42901 1.68701,0.0103 z m 3.08391,-0.22221 c 0.40909,-0.25913 0.53521,-0.4934 0.53521,-0.99421 0,-0.500817 -0.12612,-0.73509 -0.53521,-0.994218 -0.29437,-0.186454 -0.66577,-0.339013 -0.82534,-0.339013 -0.15957,0 -0.53097,0.152559 -0.82533,0.339013 -0.73471,0.465371 -0.75374,1.501418 -0.0363,1.978148 0.64208,0.42667 1.02595,0.42901 1.68701,0.0103 z m 24.67619,-0.97713 c 0.44891,-0.549852 0.53027,-0.825236 0.53027,-1.79472 0,-0.969483 -0.0814,-1.244869 -0.53027,-1.794726 -0.29164,-0.357239 -0.66526,-0.649524 -0.83028,-0.649524 -0.16501,0 -0.53863,0.292285 -0.83028,0.649524 -0.4489,0.549857 -0.53026,0.825243 -0.53026,1.794726 0,0.969484 0.0814,1.244868 0.53026,1.79472 0.29165,0.35725 0.66527,0.64953 0.83028,0.64953 0.16502,0 0.53864,-0.29228 0.83028,-0.64953 z M 70.765194,99.959203 c 0.705956,-0.414448 0.711236,-1.289311 0.01025,-1.700835 -1.7341,-1.018052 -4.872512,-0.09206 -4.188671,1.235873 0.45764,0.888669 2.978815,1.169219 4.178408,0.464962 z M 164.4487,99.198976 c 0.38297,-0.499332 0.43979,-0.784097 0.43979,-2.204145 0,-1.420048 -0.0568,-1.704813 -0.43979,-2.204142 -0.24188,-0.315378 -0.57459,-0.573414 -0.73935,-0.573414 -0.16476,0 -0.49747,0.258036 -0.73936,0.573414 -0.38297,0.499329 -0.43979,0.784094 -0.43979,2.204142 0,1.420048 0.0568,1.704813 0.43979,2.204145 0.24189,0.315374 0.5746,0.573409 0.73936,0.573409 0.16476,0 0.49747,-0.258035 0.73935,-0.573409 z M 64.159796,98.235185 c 0.564583,-0.617911 0.592432,-0.72322 0.592432,-2.240275 0,-1.517054 -0.02784,-1.622364 -0.592432,-2.240269 -0.325835,-0.356614 -0.75312,-0.648389 -0.949521,-0.648389 -0.196399,0 -0.623683,0.291775 -0.949518,0.648389 -0.564584,0.617905 -0.592436,0.723215 -0.592436,2.240269 0,1.517055 0.02784,1.622364 0.592436,2.240275 0.325835,0.356609 0.753119,0.648384 0.949518,0.648384 0.196401,0 0.623686,-0.291775 0.949521,-0.648384 z M 159.51139,98.1099 c 2.21282,-1.494385 3.51444,-4.582253 4.02472,-9.547917 0.42125,-4.099433 -0.18439,-10.477581 -1.38624,-14.598799 -1.00797,-3.456363 -1.95863,-5.326084 -4.15113,-8.164263 -1.12801,-1.460202 -2.41535,-3.287819 -2.86076,-4.061367 -3.38676,-5.881855 -4.49183,-12.589734 -3.14895,-19.114337 0.30399,-1.477011 0.34498,-1.908324 0.15212,-1.600654 -0.62725,1.000613 -4.60993,11.219929 -5.79578,14.871621 -2.95661,9.104588 -3.9164,14.05556 -3.89704,20.102327 0.0345,10.766546 2.81251,18.248402 7.92765,21.351047 1.97792,1.199722 3.33721,1.533651 5.98641,1.470629 2.03077,-0.04831 2.24213,-0.09584 3.149,-0.708287 z M 86.041851,97.665491 c 2.212822,-1.494386 3.514443,-4.582253 4.024716,-9.547917 0.421255,-4.099433 -0.184386,-10.477581 -1.386238,-14.5988 C 87.672365,70.062413 86.721704,68.19269 84.5292,65.354511 83.40119,63.894311 82.113845,62.066694 81.668436,61.293144 78.281682,55.41129 77.176607,48.70341 78.519485,42.178808 c 0.303994,-1.47701 0.344985,-1.908324 0.152116,-1.600654 -0.627249,1.000613 -4.609919,11.219928 -5.795765,14.871622 -2.956616,9.104587 -3.916409,14.05556 -3.897039,20.102326 0.03449,10.766546 2.812504,18.248402 7.927652,21.351047 1.977913,1.199721 3.337207,1.53365 5.986408,1.47063 2.030761,-0.04831 2.242121,-0.09584 3.148994,-0.708288 z m 5.674463,-0.317719 c 0.37808,-0.375004 0.42826,-0.61163 0.42826,-2.019474 0,-1.407842 -0.05018,-1.644468 -0.42826,-2.019472 -0.235545,-0.233629 -0.491805,-0.424778 -0.569474,-0.424778 -0.07767,0 -0.333927,0.191149 -0.569475,0.424778 -0.378077,0.375004 -0.428257,0.61163 -0.428257,2.019472 0,1.407844 0.05018,1.64447 0.428257,2.019474 0.235548,0.233625 0.491809,0.424774 0.569475,0.424774 0.07767,0 0.333929,-0.191149 0.569474,-0.424774 z m 45.879536,-0.136443 c 0.4091,-0.259127 0.53521,-0.493405 0.53521,-0.994213 0,-0.50081 -0.12611,-0.735087 -0.53521,-0.994214 -0.29436,-0.186454 -0.66576,-0.339014 -0.82533,-0.339014 -0.15957,0 -0.53098,0.15256 -0.82534,0.339014 -0.7347,0.465374 -0.75373,1.501422 -0.0363,1.978141 0.64209,0.426678 1.02596,0.429016 1.68702,0.01027 z m 5.6236,-1.555432 c 0.40909,-0.259127 0.53521,-0.493405 0.53521,-0.994213 0,-0.500809 -0.12612,-0.735086 -0.53521,-0.994213 -0.29437,-0.186455 -0.66577,-0.339014 -0.82534,-0.339014 -0.15957,0 -0.53097,0.152559 -0.82533,0.339014 -0.73471,0.465373 -0.75374,1.501421 -0.0363,1.978141 0.64209,0.426678 1.02596,0.429016 1.68702,0.01027 z M 70.693285,94.205591 c 1.324616,-0.450595 0.522295,-1.541267 -1.13379,-1.541267 -0.914511,0 -1.814063,0.441542 -1.814063,0.890429 0,0.737971 1.632295,1.098354 2.947853,0.650838 z m 97.020735,-1.450545 c 0.38297,-0.499333 0.43978,-0.784097 0.43978,-2.204145 0,-1.420049 -0.0568,-1.704809 -0.43978,-2.204142 -0.24189,-0.315377 -0.5746,-0.57341 -0.73936,-0.57341 -0.16476,0 -0.49747,0.258033 -0.73935,0.57341 -0.38297,0.499333 -0.43979,0.784093 -0.43979,2.204142 0,1.420048 0.0568,1.704812 0.43979,2.204145 0.24188,0.315377 0.57459,0.573411 0.73935,0.573411 0.16476,0 0.49747,-0.258034 0.73936,-0.573411 z M 95.332916,90.97741 c 0.382966,-0.499332 0.439784,-0.784093 0.439784,-2.204145 0,-1.420049 -0.05682,-1.70481 -0.439784,-2.204141 -0.241883,-0.315378 -0.574595,-0.573411 -0.739357,-0.573411 -0.164762,0 -0.497471,0.258033 -0.739354,0.573411 -0.382968,0.499331 -0.439787,0.784092 -0.439787,2.204141 0,1.420052 0.05682,1.704813 0.439787,2.204145 0.241883,0.315378 0.574592,0.573411 0.739354,0.573411 0.164762,0 0.497474,-0.258033 0.739357,-0.573411 z M 66.481969,85.658363 c 0.578544,-0.366464 0.823655,-1.122683 0.64558,-1.991759 -0.112964,-0.55131 -0.921079,-1.226163 -1.46829,-1.226163 -0.159568,0 -0.529786,0.151806 -0.822706,0.337346 -0.928604,0.588196 -0.950001,2.263082 -0.03666,2.870103 0.639168,0.424809 1.024174,0.427207 1.682081,0.01049 z m 31.0231,-2.223708 c 0.409092,-0.259127 0.535209,-0.493405 0.535209,-0.994214 0,-0.500809 -0.126117,-0.735086 -0.535209,-0.994213 -0.294367,-0.186458 -0.665766,-0.339014 -0.825338,-0.339014 -0.15957,0 -0.53097,0.152556 -0.825336,0.339014 -0.734699,0.465373 -0.753732,1.501418 -0.03634,1.978141 0.642083,0.426674 1.025955,0.429016 1.687016,0.01027 z m -5.07443,-0.75492 c 0.4489,-0.549856 0.530264,-0.825246 0.530264,-1.794725 0,-0.969484 -0.08136,-1.244873 -0.530264,-1.79473 -0.291644,-0.357239 -0.66527,-0.64952 -0.830283,-0.64952 -0.16501,0 -0.538636,0.292281 -0.830281,0.64952 -0.4489,0.549857 -0.530263,0.825246 -0.530263,1.79473 0,0.969479 0.08136,1.244869 0.530263,1.794725 0.291645,0.357239 0.665271,0.649524 0.830281,0.649524 0.165013,0 0.538639,-0.292285 0.830283,-0.649524 z M 51.509572,74.431693 c 3.751616,-0.434707 5.714298,-1.156525 5.714298,-2.101556 0,-2.101972 -10.692154,-3.098572 -16.730036,-1.559385 -1.704724,0.434574 -2.499029,0.930216 -2.499029,1.559385 0,1.672229 7.352661,2.815573 13.514767,2.101556 z M 31.659539,73.124942 c 0.448899,-0.549852 0.530265,-0.825242 0.530265,-1.794725 0,-0.969484 -0.08137,-1.244873 -0.530265,-1.794726 -0.291645,-0.357238 -0.665272,-0.649523 -0.830282,-0.649523 -0.16501,0 -0.538637,0.292285 -0.830282,0.649523 -0.448899,0.549853 -0.530265,0.825242 -0.530265,1.794726 0,0.969483 0.08137,1.244873 0.530265,1.794725 0.291645,0.35724 0.665272,0.649525 0.830282,0.649525 0.16501,0 0.538637,-0.292285 0.830282,-0.649525 z m 3.990938,0 c 0.448899,-0.549852 0.530265,-0.825242 0.530265,-1.794725 0,-0.969484 -0.08137,-1.244873 -0.530265,-1.794726 -0.291645,-0.357238 -0.665271,-0.649523 -0.830282,-0.649523 -0.165011,0 -0.538637,0.292285 -0.830282,0.649523 -0.448899,0.549853 -0.530265,0.825242 -0.530265,1.794726 0,0.969483 0.08137,1.244873 0.530265,1.794725 0.291645,0.35724 0.665271,0.649525 0.830282,0.649525 0.165011,0 0.538637,-0.292285 0.830282,-0.649525 z m 12.65887,-6.34587 C 50.522168,65.284683 51.823789,62.19682 52.334062,57.231155 52.75532,53.131721 52.149679,46.753574 50.947825,42.632356 49.939861,39.175993 48.989199,37.306271 46.796697,34.468093 45.668685,33.007892 44.381341,31.180275 43.935932,30.406724 40.549179,24.524872 39.444103,17.816994 40.786983,11.292388 41.090976,9.8153799 41.131967,9.3840654 40.939099,9.6917348 40.311849,10.69235 36.329177,20.911663 35.143332,24.563355 c -2.956613,9.104588 -3.916409,14.055561 -3.89704,20.102328 0.03449,10.766545 2.812507,18.248401 7.927653,21.351047 1.977913,1.199721 3.337208,1.53365 5.986407,1.470626 2.030764,-0.04831 2.242124,-0.09585 3.148995,-0.708284 z m 80.842103,-0.110316 c 1.80228,-0.325913 3.71045,-1.0646 4.39911,-1.702973 1.55625,-1.442616 0.0262,-2.882 -4.03629,-3.797223 -2.28375,-0.514492 -8.78204,-0.514492 -11.06578,0 -5.18096,1.167191 -6.1785,3.316149 -2.22709,4.797725 1.06487,0.399272 1.8756,0.567651 4.85747,1.008844 1.04771,0.155018 6.70936,-0.05985 8.07258,-0.306373 z M 56.511974,66.312717 c 0.382968,-0.499333 0.439787,-0.784097 0.439787,-2.204146 0,-1.420049 -0.05682,-1.704813 -0.439787,-2.204141 -0.241884,-0.315378 -0.574592,-0.573415 -0.739354,-0.573415 -0.164762,0 -0.497474,0.258037 -0.739358,0.573415 -0.382965,0.499328 -0.439783,0.784092 -0.439783,2.204141 0,1.420049 0.05682,1.704813 0.439783,2.204146 0.241884,0.315377 0.574596,0.573411 0.739358,0.573411 0.164762,0 0.49747,-0.258034 0.739354,-0.573411 z M 32.56657,65.347789 c 0.448899,-0.549856 0.530266,-0.825246 0.530266,-1.794729 0,-0.969483 -0.08137,-1.244872 -0.530266,-1.794726 -0.291645,-0.357238 -0.665271,-0.649523 -0.830281,-0.649523 -0.165011,0 -0.538637,0.292285 -0.830283,0.649523 -0.448898,0.549854 -0.530265,0.825243 -0.530265,1.794726 0,0.969483 0.08137,1.244873 0.530265,1.794729 0.291646,0.357236 0.665272,0.649521 0.830283,0.649521 0.16501,0 0.538636,-0.292285 0.830281,-0.649521 z m 28.8549,-1.775094 c 0.378077,-0.375004 0.428257,-0.61163 0.428257,-2.019476 0,-1.40784 -0.05018,-1.644467 -0.428257,-2.01947 -0.235548,-0.233629 -0.491809,-0.424778 -0.569474,-0.424778 -0.07767,0 -0.333929,0.191149 -0.569474,0.424778 -0.37808,0.375003 -0.428261,0.61163 -0.428261,2.01947 0,1.407846 0.05018,1.644472 0.428261,2.019476 0.235545,0.233625 0.491805,0.424774 0.569474,0.424774 0.07767,0 0.333926,-0.191149 0.569474,-0.424774 z m 49.33098,-1.926273 c 0.38297,-0.499332 0.43978,-0.784096 0.43978,-2.204145 0,-1.420048 -0.0568,-1.704813 -0.43978,-2.204141 -0.24189,-0.315378 -0.57459,-0.573415 -0.73936,-0.573415 -0.16476,0 -0.49747,0.258037 -0.73935,0.573415 -0.38297,0.499328 -0.43979,0.784093 -0.43979,2.204141 0,1.420049 0.0568,1.704813 0.43979,2.204145 0.24188,0.315378 0.57459,0.573411 0.73935,0.573411 0.16477,0 0.49747,-0.258033 0.73936,-0.573411 z m 13.02191,-3.088916 c 2.21282,-1.494385 3.51444,-4.582249 4.02471,-9.547917 0.42126,-4.099429 -0.18438,-10.477581 -1.38624,-14.598799 -1.00796,-3.456364 -1.95863,-5.326082 -4.15113,-8.164263 -1.12801,-1.460201 -2.41535,-3.287817 -2.86076,-4.061368 -3.38675,-5.881852 -4.49183,-12.5897309 -3.14895,-19.1143363 0.30399,-1.4770082 0.34498,-1.9083222 0.15212,-1.6006529 -0.62725,1.0006147 -4.60992,11.2199292 -5.79577,14.8716202 -2.95661,9.104588 -3.91641,14.055559 -3.89704,20.102327 0.0345,10.766546 2.81251,18.248402 7.92765,21.351048 1.97791,1.199721 3.33721,1.53365 5.98641,1.470628 2.03076,-0.04831 2.24212,-0.09584 3.149,-0.708287 z M 57.249126,57.795378 c 0.37808,-0.375003 0.42826,-0.61163 0.42826,-2.019474 0,-1.407841 -0.05018,-1.644468 -0.42826,-2.019472 -0.235545,-0.233629 -0.491809,-0.424778 -0.569475,-0.424778 -0.07767,0 -0.333929,0.191149 -0.569474,0.424778 -0.37808,0.375004 -0.42826,0.611631 -0.42826,2.019472 0,1.407844 0.05018,1.644471 0.42826,2.019474 0.235545,0.233625 0.491806,0.424774 0.569474,0.424774 0.07767,0 0.33393,-0.191149 0.569475,-0.424774 z m 48.786764,-0.148636 c 0.38296,-0.499332 0.43978,-0.784097 0.43978,-2.204145 0,-1.420049 -0.0568,-1.70481 -0.43978,-2.204142 -0.24189,-0.315378 -0.5746,-0.573415 -0.73936,-0.573415 -0.16476,0 -0.49747,0.258037 -0.73936,0.573415 -0.38296,0.499332 -0.43978,0.784093 -0.43978,2.204142 0,1.420048 0.0568,1.704813 0.43978,2.204145 0.24189,0.315377 0.5746,0.57341 0.73936,0.57341 0.16476,0 0.49747,-0.258033 0.73936,-0.57341 z m 27.75515,-0.444409 c 0.38297,-0.499333 0.43979,-0.784097 0.43979,-2.204146 0,-1.420048 -0.0568,-1.704809 -0.43979,-2.204142 -0.24188,-0.315376 -0.57459,-0.573409 -0.73935,-0.573409 -0.16476,0 -0.49747,0.258033 -0.73936,0.573409 -0.38297,0.499333 -0.43978,0.784094 -0.43978,2.204142 0,1.420049 0.0568,1.704813 0.43978,2.204146 0.24189,0.315377 0.5746,0.573411 0.73936,0.573411 0.16476,0 0.49747,-0.258034 0.73935,-0.573411 z m -2.17687,-4.888499 c 0.38297,-0.499332 0.43979,-0.784093 0.43979,-2.204141 0,-1.420049 -0.0568,-1.704813 -0.43979,-2.204146 -0.24188,-0.315377 -0.5746,-0.57341 -0.73936,-0.57341 -0.16476,0 -0.49746,0.258033 -0.73935,0.57341 -0.38297,0.499333 -0.43979,0.784097 -0.43979,2.204146 0,1.420048 0.0568,1.704809 0.43979,2.204141 0.24189,0.315377 0.57459,0.573411 0.73935,0.573411 0.16476,0 0.49748,-0.258034 0.73936,-0.573411 z m -24.12681,-0.742723 c 0.4489,-0.549856 0.53026,-0.825246 0.53026,-1.794725 0,-0.969484 -0.0814,-1.244873 -0.53026,-1.79473 -0.66656,-0.816471 -0.994,-0.816471 -1.66057,0 -0.44889,0.549857 -0.53026,0.825246 -0.53026,1.79473 0,0.969479 0.0814,1.244869 0.53026,1.794725 0.29165,0.35724 0.66528,0.649525 0.83029,0.649525 0.16501,0 0.53863,-0.292285 0.83028,-0.649525 z M 103.67288,50.7706 c 0.40909,-0.259131 0.53521,-0.493405 0.53521,-0.994214 0,-0.500809 -0.12612,-0.735086 -0.53521,-0.994217 -0.29436,-0.186454 -0.66576,-0.33901 -0.82534,-0.33901 -0.15957,0 -0.53096,0.152556 -0.82533,0.33901 -0.7347,0.465377 -0.75374,1.501422 -0.0363,1.978145 0.64208,0.426675 1.02595,0.429017 1.68701,0.01031 z m 31.38328,-1.999841 c 0.4091,-0.259128 0.53521,-0.493404 0.53521,-0.994214 0,-0.500808 -0.12611,-0.735086 -0.53521,-0.994213 -0.29436,-0.186458 -0.66576,-0.339013 -0.82533,-0.339013 -0.15957,0 -0.53097,0.152555 -0.82534,0.339013 -0.7347,0.465373 -0.75373,1.501419 -0.0363,1.978141 0.64208,0.426675 1.02595,0.429017 1.68701,0.01027 z m -3.80458,-4.310191 c 0.4489,-0.549857 0.53027,-0.825242 0.53027,-1.794726 0,-0.969483 -0.0814,-1.244872 -0.53027,-1.794729 -0.66656,-0.816471 -0.994,-0.816471 -1.66056,0 -0.4489,0.549857 -0.53027,0.825246 -0.53027,1.794729 0,0.969484 0.0814,1.244869 0.53027,1.794726 0.29164,0.35724 0.66527,0.649524 0.83028,0.649524 0.165,0 0.53863,-0.292284 0.83028,-0.649524 z"
       id="path540" />
    <ellipse
       style="fill:#55d400;fill-opacity:1;stroke:#6dd400;stroke-width:6;stroke-opacity:0.690196"
       id="path4"
       cx="95.700035"
       cy="10.674359"
       rx="75.165276"
       ry="13.046439" />
    <text
       xml:space="preserve"
       id="text540"
       style="font-size:31.5062px;white-space:pre;shape-inside:url(#rect541);display:inline;fill:#24221c;fill-opacity:0.690196;stroke:#d40000;stroke-width:6;stroke-dasharray:none;stroke-opacity:0.690196"
       transform="matrix(0.30590247,0,0,0.37469981,19.18435,-10.932039)"><tspan
         x="109.70898"
         y="70.255781"
         id="tspan4">Paint<tspan
   style="stroke:#2f00d4"
   id="tspan1"> The </tspan><tspan
   style="stroke:#ffff1e"
   id="tspan3">Ground</tspan></tspan></text>
  </g>
</svg>
