<?xml version="1.0" encoding="UTF-8" standalone="no"?>
<!-- Created with Inkscape (http://www.inkscape.org/) -->

<svg
   width="512"
   height="512"
   viewBox="0 0 512 512"
   version="1.1"
   id="svg1"
   inkscape:version="1.3.2 (091e20e, 2023-11-25, custom)"
   sodipodi:docname="ptg.svg"
   inkscape:export-filename="ptg.png"
   inkscape:export-xdpi="96"
   inkscape:export-ydpi="96"
   xmlns:inkscape="http://www.inkscape.org/namespaces/inkscape"
   xmlns:sodipodi="http://sodipodi.sourceforge.net/DTD/sodipodi-0.dtd"
   xmlns="http://www.w3.org/2000/svg"
   xmlns:svg="http://www.w3.org/2000/svg">
  <sodipodi:namedview
     id="namedview1"
     pagecolor="#ffffff"
     bordercolor="#000000"
     borderopacity="0.25"
     inkscape:showpageshadow="2"
     inkscape:pageopacity="0.0"
     inkscape:pagecheckerboard="0"
     inkscape:deskcolor="#d1d1d1"
     inkscape:document-units="px"
     inkscape:zoom="1.6862839"
     inkscape:cx="261.52179"
     inkscape:cy="179.98155"
     inkscape:window-width="2560"
     inkscape:window-height="1417"
     inkscape:window-x="1912"
     inkscape:window-y="-8"
     inkscape:window-maximized="1"
     inkscape:current-layer="layer1" />
  <defs
     id="defs1">
    <rect
       x="335.05626"
       y="340.98646"
       width="151.22008"
       height="51.592735"
       id="rect543" />
    <rect
       x="211.70812"
       y="190.3594"
       width="91.325065"
       height="49.220655"
       id="rect542" />
    <rect
       x="109.70869"
       y="41.511396"
       width="161.30142"
       height="48.034615"
       id="rect541" />
  </defs>
  <g
     inkscape:label="Ebene 1"
     inkscape:groupmode="layer"
     id="layer1">
    <path
       style="fill:#00ff00;fill-opacity:0.688725;stroke-width:0.484893"
       d="M 96.845581,96.812831 C 115.87106,114.37982 122.37766,180.13499 92.096241,182.15599 59.38395,184.33922 43.14523,157.66113 43.85304,117.65244 44.47603,82.438451 76.34846,26.685901 76.34846,26.685901 c 0,0 -16.25306,36.19402 20.497121,70.12693 z"
       id="path20"
       sodipodi:nodetypes="scccs" />
    <path
       style="fill:#748fff;fill-opacity:0.688725;stroke-width:0.484893"
       d="m 96.845583,326.90457 c 19.025477,17.56698 25.532077,83.32215 -4.74934,85.34315 -32.712292,2.18323 -48.951012,-24.49486 -48.243202,-64.50355 0.62299,-35.21398 32.495422,-90.96653 32.495422,-90.96653 0,0 -16.253062,36.19402 20.49712,70.12693 z"
       id="path21"
       sodipodi:nodetypes="scccs" />
    <path
       style="fill:#ccff00;fill-opacity:0.688725;stroke-width:0.484893"
       d="m 351.25113,279.46298 c 19.02548,17.56698 25.53208,83.32215 -4.74934,85.34315 -32.71229,2.18323 -48.95101,-24.49486 -48.2432,-64.50355 0.62299,-35.21398 32.49542,-90.96653 32.49542,-90.96653 0,0 -16.25306,36.19402 20.49712,70.12693 z"
       id="path22"
       sodipodi:nodetypes="scccs" />
    <path
       style="fill:#d40000;fill-opacity:0.688725;stroke-width:0.484893"
       d="m 220.19373,179.2426 c 19.02548,17.56699 25.53208,83.32216 -4.74934,85.34316 -32.71229,2.18323 -48.95101,-24.49486 -48.2432,-64.50355 0.62299,-35.21399 32.49542,-90.96654 32.49542,-90.96654 0,0 -16.25306,36.19402 20.49712,70.12693 z"
       id="path23"
       sodipodi:nodetypes="scccs" />
    <path
       style="fill:#0000ff;fill-opacity:0.688725;stroke-width:0.484893"
       d="m 343.54187,74.871093 c 19.02548,17.56699 25.53208,83.322157 -4.74934,85.343157 -32.71229,2.18323 -48.95101,-24.49486 -48.2432,-64.503547 0.62299,-35.213989 32.49542,-90.9665391 32.49542,-90.9665391 0,0 -16.25306,36.1940201 20.49712,70.1269291 z"
       id="path24"
       sodipodi:nodetypes="scccs" />
    <path
       style="fill:#00ff00;fill-opacity:0.6901961;stroke-width:0.484893"
       d="m 452.06452,405.77622 c 19.02548,17.56699 25.53208,83.32216 -4.74934,85.34316 -32.71229,2.18323 -48.95101,-24.49486 -48.2432,-64.50355 0.62299,-35.21399 32.49542,-90.96654 32.49542,-90.96654 0,0 -16.25306,36.19402 20.49712,70.12693 z"
       id="path26"
       sodipodi:nodetypes="scccs" />
    <path
       style="fill:#ff6600;fill-opacity:0.688725;stroke-width:0.484893"
       d="m 225.53091,402.2181 c 19.02548,17.56699 25.53208,83.32216 -4.74934,85.34316 -32.7123,2.18323 -48.95102,-24.49486 -48.24321,-64.50355 0.62299,-35.21399 32.49542,-90.96654 32.49542,-90.96654 0,0 -16.25306,36.19402 20.49713,70.12693 z"
       id="path27"
       sodipodi:nodetypes="scccs" />
    <path
       style="fill:#008000;fill-opacity:0.688725;stroke-width:0.484893"
       d="m 460.3668,180.42865 c 19.02548,17.56699 25.53208,83.32216 -4.74934,85.34316 -32.71229,2.18323 -48.95101,-24.49486 -48.2432,-64.50355 0.62299,-35.21399 32.49542,-90.96654 32.49542,-90.96654 0,0 -16.25306,36.19402 20.49712,70.12693 z"
       id="path28"
       sodipodi:nodetypes="scccs" />
    <ellipse
       style="fill:#917c6f;fill-opacity:0.690196;stroke-width:0.693501"
       id="path30"
       cx="97.255264"
       cy="195.10356"
       rx="31.430058"
       ry="5.9301991" />
    <ellipse
       style="fill:#917c6f;fill-opacity:0.690196;stroke-width:0.725318"
       id="path31"
       cx="217.63832"
       cy="276.94031"
       rx="39.139317"
       ry="6.5232186" />
    <ellipse
       style="fill:#917c6f;fill-opacity:0.690196;stroke-width:0.806866"
       id="path32"
       cx="93.400642"
       cy="429.93948"
       rx="34.691666"
       ry="8.3022795" />
    <ellipse
       style="fill:#917c6f;fill-opacity:0.690196"
       id="path33"
       cx="221.78946"
       cy="503.77045"
       rx="37.953278"
       ry="5.6336894" />
    <ellipse
       style="fill:#917c6f;fill-opacity:0.690196;stroke-width:0.830195"
       id="path34"
       cx="350.47479"
       cy="385.16647"
       rx="32.616096"
       ry="7.4127488" />
    <ellipse
       style="fill:#917c6f;fill-opacity:0.690196"
       id="path35"
       cx="449.21262"
       cy="504.36346"
       rx="31.726566"
       ry="5.0406694" />
    <ellipse
       style="fill:#917c6f;fill-opacity:0.690196"
       id="path36"
       cx="457.21838"
       cy="280.79495"
       rx="34.988174"
       ry="6.8197293" />
    <ellipse
       style="fill:#917c6f;fill-opacity:0.690196"
       id="path37"
       cx="346.91666"
       cy="172.5688"
       rx="33.209118"
       ry="8.3022795" />
    <ellipse
       style="fill:#d40000;fill-opacity:0.690196;stroke:#d40000;stroke-opacity:0.690196"
       id="path448"
       cx="239.58005"
       cy="256.48111"
       rx="2.9650996"
       ry="5.6336894" />
    <ellipse
       style="fill:#d40000;fill-opacity:0.690196;stroke:#d40000;stroke-opacity:0.690196"
       id="path449"
       cx="250.84743"
       cy="238.98703"
       rx="3.5581195"
       ry="6.5232191" />
    <ellipse
       style="fill:#d40000;fill-opacity:0.690196;stroke:#d40000;stroke-opacity:0.690196"
       id="path450"
       cx="257.66714"
       cy="222.08598"
       rx="3.8546295"
       ry="2.6685898" />
    <ellipse
       style="fill:#d40000;fill-opacity:0.690196;stroke:#d40000;stroke-opacity:0.690196"
       id="path451"
       cx="241.06261"
       cy="217.93483"
       rx="3.8546295"
       ry="5.6336894" />
    <ellipse
       style="fill:#d40000;fill-opacity:0.690196;stroke:#d40000;stroke-opacity:0.690196"
       id="path452"
       cx="156.26076"
       cy="226.83012"
       rx="4.4476495"
       ry="3.8546295" />
    <ellipse
       style="fill:#d40000;fill-opacity:0.690196;stroke:#d40000;stroke-opacity:0.690196"
       id="path453"
       cx="169.01068"
       cy="251.73697"
       rx="5.3371797"
       ry="1.4825498" />
    <ellipse
       style="fill:#d40000;fill-opacity:0.690196;stroke:#d40000;stroke-opacity:0.690196"
       id="path454"
       cx="166.93512"
       cy="266.56247"
       rx="7.4127493"
       ry="2.6685898" />
    <ellipse
       style="fill:#d40000;fill-opacity:0.690196;stroke:#d40000;stroke-opacity:0.690196"
       id="path455"
       cx="148.25499"
       cy="258.26019"
       rx="4.7441597"
       ry="6.8197293" />
    <ellipse
       style="fill:#d40000;fill-opacity:0.690196;stroke:#d40000;stroke-opacity:0.690196"
       id="ellipse490"
       cx="284.35306"
       cy="329.42258"
       rx="4.4476495"
       ry="3.8546295" />
    <ellipse
       style="fill:#d40000;fill-opacity:0.690196;stroke:#d40000;stroke-opacity:0.690196"
       id="ellipse491"
       cx="297.103"
       cy="354.32941"
       rx="5.3371797"
       ry="1.4825498" />
    <ellipse
       style="fill:#d40000;fill-opacity:0.690196;stroke:#d40000;stroke-opacity:0.690196"
       id="ellipse492"
       cx="295.02744"
       cy="369.15491"
       rx="7.4127493"
       ry="2.6685898" />
    <ellipse
       style="fill:#d40000;fill-opacity:0.690196;stroke:#d40000;stroke-opacity:0.690196"
       id="ellipse493"
       cx="276.34729"
       cy="360.85263"
       rx="4.7441597"
       ry="6.8197293" />
    <ellipse
       style="fill:#d40000;fill-opacity:0.690196;stroke:#d40000;stroke-opacity:0.690196"
       id="ellipse494"
       cx="384.27692"
       cy="347.80618"
       rx="2.9650996"
       ry="5.6336894" />
    <ellipse
       style="fill:#d40000;fill-opacity:0.690196;stroke:#d40000;stroke-opacity:0.690196"
       id="ellipse495"
       cx="377.16068"
       cy="326.16095"
       rx="3.5581195"
       ry="6.5232191" />
    <ellipse
       style="fill:#d40000;fill-opacity:0.690196;stroke:#d40000;stroke-opacity:0.690196"
       id="ellipse496"
       cx="392.28268"
       cy="328.23651"
       rx="3.8546295"
       ry="2.6685898" />
    <ellipse
       style="fill:#d40000;fill-opacity:0.690196;stroke:#d40000;stroke-opacity:0.690196"
       id="ellipse497"
       cx="386.94553"
       cy="309.25989"
       rx="3.8546295"
       ry="5.6336894" />
    <ellipse
       style="fill:#d40000;fill-opacity:0.690196;stroke:#d40000;stroke-opacity:0.690196"
       id="ellipse498"
       cx="165.45256"
       cy="482.42169"
       rx="2.9650996"
       ry="5.6336894" />
    <ellipse
       style="fill:#d40000;fill-opacity:0.690196;stroke:#d40000;stroke-opacity:0.690196"
       id="ellipse499"
       cx="123.94116"
       cy="173.16182"
       rx="3.5581195"
       ry="6.5232191" />
    <ellipse
       style="fill:#d40000;fill-opacity:0.690196;stroke:#d40000;stroke-opacity:0.690196"
       id="ellipse500"
       cx="414.81744"
       cy="492.50305"
       rx="3.8546295"
       ry="2.6685898" />
    <ellipse
       style="fill:#d40000;fill-opacity:0.690196;stroke:#d40000;stroke-opacity:0.690196"
       id="ellipse501"
       cx="166.93512"
       cy="455.73584"
       rx="3.8546295"
       ry="5.6336894" />
    <ellipse
       style="fill:#d40000;fill-opacity:0.690196;stroke:#d40000;stroke-opacity:0.690196"
       id="ellipse502"
       cx="184.4292"
       cy="487.75888"
       rx="2.9650996"
       ry="5.6336894" />
    <ellipse
       style="fill:#d40000;fill-opacity:0.690196;stroke:#d40000;stroke-opacity:0.690196"
       id="ellipse503"
       cx="136.98759"
       cy="380.71878"
       rx="3.5581195"
       ry="6.5232191" />
    <ellipse
       style="fill:#d40000;fill-opacity:0.690196;stroke:#d40000;stroke-opacity:0.690196"
       id="ellipse504"
       cx="394.06174"
       cy="464.03809"
       rx="3.8546295"
       ry="2.6685898" />
    <ellipse
       style="fill:#d40000;fill-opacity:0.690196;stroke:#d40000;stroke-opacity:0.690196"
       id="ellipse505"
       cx="251.73697"
       cy="452.77072"
       rx="3.8546295"
       ry="5.6336894" />
    <ellipse
       style="fill:#d40000;fill-opacity:0.690196;stroke:#d40000;stroke-opacity:0.690196"
       id="ellipse506"
       cx="265.0799"
       cy="438.53824"
       rx="2.9650996"
       ry="5.6336894" />
    <ellipse
       style="fill:#d40000;fill-opacity:0.690196;stroke:#d40000;stroke-opacity:0.690196"
       id="ellipse507"
       cx="125.1272"
       cy="367.07935"
       rx="3.5581195"
       ry="6.5232191" />
    <ellipse
       style="fill:#d40000;fill-opacity:0.690196;stroke:#d40000;stroke-opacity:0.690196"
       id="ellipse508"
       cx="473.52643"
       cy="459.29395"
       rx="3.8546295"
       ry="2.6685898" />
    <ellipse
       style="fill:#d40000;fill-opacity:0.690196;stroke:#d40000;stroke-opacity:0.690196"
       id="ellipse509"
       cx="42.400928"
       cy="192.43497"
       rx="3.8546295"
       ry="5.6336894" />
    <ellipse
       style="fill:#d40000;fill-opacity:0.690196;stroke:#d40000;stroke-opacity:0.690196"
       id="ellipse510"
       cx="248.47536"
       cy="479.4566"
       rx="2.9650996"
       ry="5.6336894" />
    <ellipse
       style="fill:#d40000;fill-opacity:0.690196;stroke:#d40000;stroke-opacity:0.690196"
       id="ellipse511"
       cx="125.1272"
       cy="396.1373"
       rx="3.5581195"
       ry="6.5232191" />
    <ellipse
       style="fill:#d40000;fill-opacity:0.690196;stroke:#d40000;stroke-opacity:0.690196"
       id="ellipse512"
       cx="478.86362"
       cy="480.04965"
       rx="3.8546295"
       ry="2.6685898" />
    <ellipse
       style="fill:#d40000;fill-opacity:0.690196;stroke:#d40000;stroke-opacity:0.690196"
       id="ellipse513"
       cx="45.366028"
       cy="171.67928"
       rx="3.8546295"
       ry="5.6336894" />
    <ellipse
       style="fill:#d40000;fill-opacity:0.690196;stroke:#d40000;stroke-opacity:0.690196"
       id="ellipse514"
       cx="140.54572"
       cy="166.34207"
       rx="2.9650996"
       ry="5.6336894" />
    <ellipse
       style="fill:#d40000;fill-opacity:0.690196;stroke:#d40000;stroke-opacity:0.690196"
       id="ellipse515"
       cx="369.45142"
       cy="135.80156"
       rx="3.5581195"
       ry="6.5232191" />
    <ellipse
       style="fill:#d40000;fill-opacity:0.690196;stroke:#d40000;stroke-opacity:0.690196"
       id="ellipse516"
       cx="401.17798"
       cy="483.01474"
       rx="3.8546295"
       ry="2.6685898" />
    <ellipse
       style="fill:#d40000;fill-opacity:0.690196;stroke:#d40000;stroke-opacity:0.690196"
       id="ellipse517"
       cx="55.447365"
       cy="192.43497"
       rx="3.8546295"
       ry="5.6336894" />
    <ellipse
       style="fill:#d40000;fill-opacity:0.690196;stroke:#d40000;stroke-opacity:0.690196"
       id="ellipse518"
       cx="126.90627"
       cy="150.92355"
       rx="2.9650996"
       ry="5.6336894" />
    <ellipse
       style="fill:#d40000;fill-opacity:0.690196;stroke:#d40000;stroke-opacity:0.690196"
       id="ellipse519"
       cx="301.25412"
       cy="160.7084"
       rx="3.5581195"
       ry="6.5232191" />
    <ellipse
       style="fill:#d40000;fill-opacity:0.690196;stroke:#d40000;stroke-opacity:0.690196"
       id="ellipse520"
       cx="270.12057"
       cy="462.85205"
       rx="3.8546295"
       ry="2.6685898" />
    <ellipse
       style="fill:#d40000;fill-opacity:0.690196;stroke:#d40000;stroke-opacity:0.690196"
       id="ellipse521"
       cx="40.621868"
       cy="417.78256"
       rx="3.8546295"
       ry="5.6336894" />
    <ellipse
       style="fill:#d40000;fill-opacity:0.690196;stroke:#d40000;stroke-opacity:0.690196"
       id="ellipse522"
       cx="37.953274"
       cy="392.8757"
       rx="2.9650996"
       ry="5.6336894" />
    <ellipse
       style="fill:#d40000;fill-opacity:0.690196;stroke:#d40000;stroke-opacity:0.690196"
       id="ellipse523"
       cx="376.56766"
       cy="148.84799"
       rx="3.5581195"
       ry="6.5232191" />
    <ellipse
       style="fill:#d40000;fill-opacity:0.690196;stroke:#d40000;stroke-opacity:0.690196"
       id="ellipse524"
       cx="380.4223"
       cy="129.57486"
       rx="3.8546295"
       ry="2.6685898" />
    <ellipse
       style="fill:#d40000;fill-opacity:0.690196;stroke:#d40000;stroke-opacity:0.690196"
       id="ellipse525"
       cx="290.28326"
       cy="134.91203"
       rx="3.8546295"
       ry="5.6336894" />
    <ellipse
       style="fill:#d40000;fill-opacity:0.690196;stroke:#d40000;stroke-opacity:0.690196"
       id="ellipse526"
       cx="51.592731"
       cy="407.7012"
       rx="2.9650996"
       ry="5.6336894" />
    <ellipse
       style="fill:#d40000;fill-opacity:0.690196;stroke:#d40000;stroke-opacity:0.690196"
       id="ellipse527"
       cx="285.8356"
       cy="150.03404"
       rx="3.5581195"
       ry="6.5232191" />
    <ellipse
       style="fill:#d40000;fill-opacity:0.690196;stroke:#d40000;stroke-opacity:0.690196"
       id="ellipse528"
       cx="277.82983"
       cy="134.91203"
       rx="3.8546295"
       ry="2.6685898" />
    <ellipse
       style="fill:#d40000;fill-opacity:0.690196;stroke:#d40000;stroke-opacity:0.690196"
       id="ellipse529"
       cx="367.96887"
       cy="115.9354"
       rx="3.8546295"
       ry="5.6336894" />
    <ellipse
       style="fill:#d40000;fill-opacity:0.690196;stroke:#d40000;stroke-opacity:0.690196"
       id="ellipse530"
       cx="388.72458"
       cy="258.85321"
       rx="3.8546295"
       ry="2.6685898" />
    <ellipse
       style="fill:#d40000;fill-opacity:0.690196;stroke:#d40000;stroke-opacity:0.690196"
       id="ellipse531"
       cx="406.51517"
       cy="270.12057"
       rx="3.8546295"
       ry="2.6685898" />
    <ellipse
       style="fill:#d40000;fill-opacity:0.690196;stroke:#d40000;stroke-opacity:0.690196"
       id="ellipse532"
       cx="407.10818"
       cy="254.70206"
       rx="3.8546295"
       ry="2.6685898" />
    <ellipse
       style="fill:#d40000;fill-opacity:0.690196;stroke:#d40000;stroke-opacity:0.690196"
       id="ellipse533"
       cx="416.5965"
       cy="269.52756"
       rx="3.8546295"
       ry="2.6685898" />
    <ellipse
       style="fill:#d40000;fill-opacity:0.690196;stroke:#d40000;stroke-opacity:0.690196"
       id="ellipse534"
       cx="485.38681"
       cy="471.74738"
       rx="3.8546295"
       ry="2.6685898" />
    <ellipse
       style="fill:#d40000;fill-opacity:0.690196;stroke:#d40000;stroke-opacity:0.690196"
       id="ellipse535"
       cx="387.53854"
       cy="484.20078"
       rx="3.8546295"
       ry="2.6685898" />
    <ellipse
       style="fill:#d40000;fill-opacity:0.690196;stroke:#d40000;stroke-opacity:0.690196"
       id="ellipse536"
       cx="487.46237"
       cy="243.73119"
       rx="3.5581195"
       ry="6.5232191" />
    <ellipse
       style="fill:#d40000;fill-opacity:0.690196;stroke:#d40000;stroke-opacity:0.690196"
       id="ellipse537"
       cx="476.78802"
       cy="260.92877"
       rx="3.5581195"
       ry="6.5232191" />
    <ellipse
       style="fill:#d40000;fill-opacity:0.690196;stroke:#d40000;stroke-opacity:0.690196"
       id="ellipse538"
       cx="497.24722"
       cy="264.78339"
       rx="3.8546295"
       ry="5.6336894" />
    <rect
       style="fill:#484537;fill-opacity:0.690196;stroke:#d40000;stroke-opacity:0.690196"
       id="rect538"
       width="624.44995"
       height="512.96222"
       x="-57.522934"
       y="1.1860399"
       rx="92.667709"
       ry="256.48111" />
    <rect
       style="fill:#484537;fill-opacity:0.690196;stroke:#d40000;stroke-opacity:0.690196"
       id="rect540"
       width="2.3720798"
       height="2.9650996"
       x="407.40469"
       y="432.31149"
       rx="104.5281"
       ry="2.9650996" />
    <path
       style="fill:#24221c;fill-opacity:0.690196;stroke:#d40000;stroke-width:0.59302;stroke-opacity:0.690196"
       d="m 27.229323,512.35597 c -7.75456,-1.88282 -14.297663,-5.82559 -22.110452,-13.32341 -29.722716,-28.52443 -51.964389,-96.76024 -59.344132,-182.0634 -3.205532,-37.05305 -3.205953,-81.51265 -0.0011,-118.60399 C -47.056319,115.38183 -25.676682,48.067821 2.9112475,18.466746 11.064347,10.024706 18.318421,5.3258158 26.381631,3.2635928 c 4.607403,-1.1783739 6.461806,-1.188023 228.320429,-1.188023 221.85863,0 223.71303,0.00965 228.32044,1.188023 27.10821,6.9331162 52.27513,48.6924302 67.54611,112.0787872 17.9529,74.51856 20.53195,169.36473 6.82109,250.84743 -10.53666,62.61849 -29.58685,110.27328 -53.10444,132.84275 -7.94479,7.6245 -14.38272,11.46556 -22.37703,13.35082 -5.28425,1.24616 -449.543924,1.21938 -454.678907,-0.0274 z m 219.040537,-4.11123 c 3.84247,-0.51583 8.37907,-1.39999 10.08134,-1.96481 2.63216,-0.87336 3.09502,-1.24866 3.09502,-2.50949 0,-1.26156 -0.4631,-1.6362 -3.10672,-2.5133 -6.53933,-2.16965 -16.69999,-3.05996 -34.84655,-3.0534 -23.45531,0.008 -37.06109,1.97618 -37.55138,5.43079 -0.15039,1.05965 0.25349,1.53242 1.89505,2.2183 2.76372,1.15476 11.06486,2.55802 19.08691,3.22653 9.21384,0.76783 32.98367,0.28801 41.34633,-0.83462 z m 216.87871,0.8554 c 11.25554,-0.97435 17.7906,-2.70485 17.7906,-4.71101 0,-5.77701 -48.5828,-7.35121 -61.52582,-1.99359 -4.0505,1.67666 -1.51112,4.09466 5.78662,5.51004 8.50138,1.64882 26.24779,2.20745 37.9486,1.19456 z m -45.63308,-13.94372 c 1.33733,-0.69156 1.74961,-1.3168 1.74961,-2.65336 0,-1.33656 -0.41228,-1.9618 -1.74961,-2.65336 -0.96229,-0.49762 -2.17641,-0.90476 -2.69804,-0.90476 -0.52164,0 -1.73576,0.40714 -2.69804,0.90476 -2.40175,1.24199 -2.46397,4.00699 -0.11881,5.27927 2.09898,1.13872 3.35386,1.14496 5.51489,0.0275 z m -231.22467,-2.00795 c 1.23595,-1.00081 1.39999,-1.63232 1.39999,-5.38957 0,-3.75726 -0.16404,-4.38876 -1.39999,-5.38957 -0.77,-0.62351 -1.60772,-1.13365 -1.86162,-1.13365 -0.25389,0 -1.09162,0.51014 -1.86162,1.13365 -1.23595,1.00081 -1.39999,1.63231 -1.39999,5.38957 0,3.75725 0.16404,4.38876 1.39999,5.38957 0.77,0.62351 1.60773,1.13365 1.86162,1.13365 0.2539,0 1.09162,-0.51014 1.86162,-1.13365 z m 268.47174,-3.89622 c 7.23374,-3.98823 11.48876,-12.22913 13.15685,-25.48151 1.3771,-10.94058 -0.60275,-27.96261 -4.53163,-38.96132 -3.29505,-9.22436 -6.40277,-14.21427 -13.5701,-21.78881 -3.68749,-3.89699 -7.89584,-8.77454 -9.35188,-10.839 -11.07135,-15.6975 -14.68387,-33.59951 -10.29397,-51.01239 0.99376,-3.94185 1.12776,-5.09294 0.49727,-4.27183 -2.05049,2.67044 -15.06991,29.94378 -18.94645,39.68942 -9.66522,24.29836 -12.80281,37.51152 -12.73949,53.64915 0.11275,28.7338 9.19413,48.7014 25.91563,56.98175 6.46582,3.20182 10.90938,4.093 19.56965,3.92481 6.6386,-0.12892 7.32954,-0.2558 10.29412,-1.89027 z m -287.44838,-1.44096 c 1.23595,-1.00081 1.39999,-1.63232 1.39999,-5.38957 0,-3.75726 -0.16404,-4.38876 -1.39999,-5.38957 -0.77,-0.62351 -1.60772,-1.13365 -1.86162,-1.13365 -0.25389,0 -1.09162,0.51014 -1.86162,1.13365 -1.23595,1.00081 -1.39999,1.63231 -1.39999,5.38957 0,3.75725 0.16404,4.38876 1.39999,5.38957 0.77,0.62351 1.60773,1.13365 1.86162,1.13365 0.2539,0 1.09162,-0.51014 1.86162,-1.13365 z m 58.65509,-1.19477 c 4.2285,-1.60671 6.85261,-3.79126 9.52997,-7.93366 6.42043,-9.93365 8.09918,-27.45349 4.38723,-45.78617 -1.7477,-8.63161 -3.6324,-14.13934 -7.25182,-21.19231 -2.14708,-4.1839 -4.01105,-6.60794 -9.62587,-12.51824 -10.89807,-11.47155 -16.42357,-20.82955 -19.65804,-33.29284 -2.00632,-7.73089 -1.92907,-20.14805 0.17484,-28.10638 1.02985,-3.89555 1.21333,-5.23351 0.6099,-4.44765 -2.06129,2.68451 -15.07562,29.96012 -18.93748,39.68943 -10.53613,26.54404 -13.70749,41.82363 -12.56271,60.52695 1.54647,25.26604 10.40422,42.5148 25.72988,50.10394 5.92621,2.93461 10.75975,3.99187 18.52551,4.05216 4.64574,0.0361 6.77833,-0.2212 9.07859,-1.09523 z m 164.2673,0.23762 c 1.33733,-0.69156 1.74961,-1.3168 1.74961,-2.65336 0,-1.33656 -0.41228,-1.9618 -1.74961,-2.65336 -0.96229,-0.49762 -2.1764,-0.90476 -2.69804,-0.90476 -0.52164,0 -1.73575,0.40714 -2.69804,0.90476 -2.40174,1.24199 -2.46397,4.00699 -0.11881,5.27927 2.09899,1.13872 3.35386,1.14496 5.51489,0.0274 z m 13.63946,-1.18604 c 1.33733,-0.69156 1.74961,-1.3168 1.74961,-2.65336 0,-1.33656 -0.41228,-1.9618 -1.74961,-2.65336 -0.96229,-0.49762 -2.1764,-0.90476 -2.69804,-0.90476 -0.52164,0 -1.73575,0.40714 -2.69804,0.90476 -2.40174,1.24199 -2.46397,4.00699 -0.11881,5.27927 2.09899,1.13872 3.35386,1.14496 5.51489,0.0274 z m -153.53906,-0.82191 c 1.23595,-1.00081 1.39999,-1.63231 1.39999,-5.38957 0,-3.75726 -0.16404,-4.38876 -1.39999,-5.38957 -0.77,-0.62351 -1.60772,-1.13365 -1.86162,-1.13365 -0.25389,0 -1.09162,0.51014 -1.86162,1.13365 -1.23594,1.00081 -1.39999,1.63231 -1.39999,5.38957 0,3.75726 0.16405,4.38876 1.39999,5.38957 0.77,0.62351 1.60773,1.13365 1.86162,1.13365 0.2539,0 1.09162,-0.51014 1.86162,-1.13365 z M 481.56164,482.703 c 1.33733,-0.69156 1.74961,-1.3168 1.74961,-2.65336 0,-1.33656 -0.41228,-1.9618 -1.74961,-2.65336 -0.96229,-0.49762 -2.1764,-0.90476 -2.69804,-0.90476 -0.52164,0 -1.73575,0.40714 -2.69804,0.90476 -2.40174,1.24199 -2.46397,4.00699 -0.11881,5.27927 2.09899,1.13872 3.35386,1.14496 5.51489,0.0274 z m 6.52322,-8.30228 c 1.33733,-0.69156 1.74961,-1.3168 1.74961,-2.65336 0,-1.33656 -0.41228,-1.9618 -1.74961,-2.65336 -0.96229,-0.49762 -2.1764,-0.90476 -2.69804,-0.90476 -0.52164,0 -1.73575,0.40714 -2.69804,0.90476 -2.40174,1.24199 -2.46397,4.00699 -0.11881,5.27927 2.09899,1.13872 3.35386,1.14496 5.51489,0.0274 z m -91.32507,-7.70926 c 1.33733,-0.69156 1.74961,-1.3168 1.74961,-2.65336 0,-1.33656 -0.41228,-1.9618 -1.74961,-2.65336 -0.96229,-0.49761 -2.1764,-0.90476 -2.69804,-0.90476 -0.52164,0 -1.73575,0.40715 -2.69804,0.90476 -2.40174,1.24199 -2.46397,4.00699 -0.11881,5.27927 2.09899,1.13872 3.35386,1.14496 5.51489,0.0274 z m -123.94117,-1.18604 c 1.33733,-0.69156 1.74961,-1.3168 1.74961,-2.65336 0,-1.33656 -0.41228,-1.9618 -1.74961,-2.65336 -0.96229,-0.49761 -2.1764,-0.90476 -2.69804,-0.90476 -0.52164,0 -1.73575,0.40715 -2.69804,0.90476 -2.40174,1.24199 -2.46397,4.00699 -0.1188,5.27927 2.09898,1.13872 3.35386,1.14496 5.51488,0.0274 z m 203.40584,-3.55812 c 1.33733,-0.69156 1.74961,-1.3168 1.74961,-2.65336 0,-1.33656 -0.41228,-1.9618 -1.74961,-2.65336 -0.96229,-0.49761 -2.1764,-0.90476 -2.69804,-0.90476 -0.52164,0 -1.73575,0.40715 -2.69804,0.90476 -2.40174,1.24199 -2.46397,4.00699 -0.1188,5.27927 2.09898,1.13872 3.35386,1.14496 5.51488,0.0274 z m -306.57514,-1.4217 c 1.46745,-1.46746 1.73344,-2.20242 1.73344,-4.78978 0,-2.58736 -0.26599,-3.32232 -1.73344,-4.78977 -0.95339,-0.9534 -2.17478,-1.73345 -2.71421,-1.73345 -0.53942,0 -1.76081,0.78005 -2.7142,1.73345 -1.46746,1.46745 -1.73345,2.20241 -1.73345,4.78977 0,2.58736 0.26599,3.32232 1.73345,4.78978 0.95339,0.95339 2.17478,1.73344 2.7142,1.73344 0.53943,0 1.76082,-0.78005 2.71421,-1.73344 z m 84.80185,-2.9651 c 1.46746,-1.46746 1.73344,-2.20242 1.73344,-4.78978 0,-2.58736 -0.26598,-3.32231 -1.73344,-4.78977 -0.95339,-0.9534 -2.17478,-1.73345 -2.71421,-1.73345 -0.53942,0 -1.76081,0.78005 -2.7142,1.73345 -1.46746,1.46746 -1.73345,2.20241 -1.73345,4.78977 0,2.58736 0.26599,3.32232 1.73345,4.78978 0.95339,0.9534 2.17478,1.73344 2.7142,1.73344 0.53943,0 1.76082,-0.78004 2.71421,-1.73344 z m 12.49036,-13.63268 c 1.23595,-1.00081 1.39999,-1.63232 1.39999,-5.38958 0,-3.75725 -0.16404,-4.38876 -1.39999,-5.38957 -0.77,-0.62351 -1.60772,-1.13365 -1.86162,-1.13365 -0.25389,0 -1.09162,0.51014 -1.86162,1.13365 -1.23595,1.00081 -1.39999,1.63232 -1.39999,5.38957 0,3.75726 0.16404,4.38877 1.39999,5.38958 0.77,0.6235 1.60773,1.13364 1.86162,1.13364 0.2539,0 1.09162,-0.51014 1.86162,-1.13364 z m -154.56425,-6.83395 c 10.61176,-1.77731 15.41852,-4.00771 15.41852,-7.15442 0,-5.11136 -13.00828,-8.22028 -34.39516,-8.22028 -13.240309,0 -20.195573,0.72782 -27.331328,2.86001 -6.023173,1.79975 -8.745212,4.92266 -6.476175,7.42991 2.24171,2.47707 10.604679,4.8282 21.087113,5.92835 6.91329,0.72556 25.24043,0.23782 31.69703,-0.84357 z M 43.336071,422.57232 c 1.467457,-1.46746 1.733444,-2.20242 1.733444,-4.78977 0,-2.58736 -0.265987,-3.32232 -1.733444,-4.78978 -0.953393,-0.9534 -2.174782,-1.73344 -2.714205,-1.73344 -0.539423,0 -1.760813,0.78004 -2.714205,1.73344 -1.467458,1.46746 -1.733445,2.20242 -1.733445,4.78978 0,2.58735 0.265987,3.32231 1.733445,4.78977 0.953392,0.9534 2.174782,1.73345 2.714205,1.73345 0.539423,0 1.760812,-0.78005 2.714205,-1.73345 z m 10.118284,-9.48154 c 1.235948,-1.00081 1.399989,-1.63232 1.399989,-5.38957 0,-3.75726 -0.164041,-4.38877 -1.399989,-5.38958 -0.770001,-0.6235 -1.607725,-1.13364 -1.86162,-1.13364 -0.253896,0 -1.09162,0.51014 -1.86162,1.13364 -1.235949,1.00081 -1.39999,1.63232 -1.39999,5.38958 0,3.75725 0.164041,4.38876 1.39999,5.38957 0.77,0.62351 1.607724,1.13365 1.86162,1.13365 0.253895,0 1.091619,-0.51014 1.86162,-1.13365 z m 43.724552,-1.74788 c 8.657963,-3.28977 13.831853,-12.21897 15.527003,-26.79681 2.49104,-21.42229 -5.41423,-49.08132 -16.913751,-59.17803 -9.584661,-8.41545 -18.182145,-22.56317 -21.091916,-34.7081 -2.318335,-9.67638 -2.065595,-21.4632 0.650234,-30.32421 1.592982,-5.19747 0.30161,-3.17123 -6.255726,9.8156 -10.659764,21.11173 -19.418609,43.78044 -23.245201,60.16076 -1.581092,6.76811 -1.661583,7.81249 -1.645364,21.34871 0.01495,12.4798 0.180213,14.98103 1.341963,20.31102 3.9362,18.05876 12.083784,30.4318 23.87162,36.25177 6.190957,3.05664 10.948388,4.11374 18.787584,4.17461 4.571774,0.0355 6.789005,-0.22526 8.973554,-1.05532 z m 30.365263,-9.32316 c 1.25193,-1.33261 1.43767,-2.09259 1.43767,-5.88242 0,-3.78983 -0.18574,-4.54981 -1.43767,-5.88243 -0.79072,-0.84168 -1.87835,-1.53032 -2.41696,-1.53032 -0.53861,0 -1.62625,0.68864 -2.41697,1.53032 -1.25192,1.33262 -1.43766,2.0926 -1.43766,5.88243 0,3.78983 0.18574,4.54981 1.43766,5.88242 0.79072,0.84168 1.87836,1.53033 2.41697,1.53033 0.53861,0 1.62624,-0.68865 2.41696,-1.53033 z m -87.729274,-3.75446 c 1.235948,-1.00081 1.39999,-1.63232 1.39999,-5.38957 0,-3.75726 -0.164042,-4.38876 -1.39999,-5.38957 -0.770001,-0.62351 -1.607724,-1.13365 -1.86162,-1.13365 -0.253896,0 -1.091619,0.51014 -1.86162,1.13365 -1.235948,1.00081 -1.39999,1.63231 -1.39999,5.38957 0,3.75725 0.164042,4.38876 1.39999,5.38957 0.770001,0.62351 1.607724,1.13365 1.86162,1.13365 0.253896,0 1.091619,-0.51014 1.86162,-1.13365 z m 329.488674,-6.84424 c 18.30377,-3.07813 18.30377,-9.47272 0,-12.49135 -19.66865,-3.24371 -47.75257,-0.38706 -51.11133,5.19897 -1.98675,3.30422 5.83451,6.58717 19.33063,8.11398 6.80798,0.77019 25.13226,0.29646 31.7807,-0.8216 z m -229.899,-4.81981 c 1.25193,-1.33262 1.43767,-2.0926 1.43767,-5.88243 0,-3.78983 -0.18574,-4.54981 -1.43767,-5.88243 -0.79072,-0.84167 -1.87835,-1.53032 -2.41696,-1.53032 -0.53861,0 -1.62625,0.68865 -2.41697,1.53032 -1.25192,1.33262 -1.43766,2.0926 -1.43766,5.88243 0,3.78983 0.18574,4.54981 1.43766,5.88243 0.79072,0.84167 1.87836,1.53032 2.41697,1.53032 0.53861,0 1.62624,-0.68865 2.41696,-1.53032 z m -11.8604,-13.63946 c 1.25193,-1.33262 1.43767,-2.0926 1.43767,-5.88243 0,-3.78983 -0.18574,-4.54981 -1.43767,-5.88242 -0.79072,-0.84168 -1.87835,-1.53033 -2.41696,-1.53033 -0.53861,0 -1.62625,0.68865 -2.41697,1.53033 -1.25192,1.33261 -1.43766,2.09259 -1.43766,5.88242 0,3.78983 0.18574,4.54981 1.43766,5.88243 0.79072,0.84168 1.87836,1.53032 2.41697,1.53032 0.53861,0 1.62624,-0.68864 2.41696,-1.53032 z m 173.50027,-1.52922 c 2.30778,-1.10609 2.32503,-3.44092 0.0335,-4.5392 -5.66879,-2.71698 -15.92831,-0.2457 -13.69282,3.2983 1.49602,2.37168 9.73778,3.12042 13.65928,1.2409 z m -21.59315,-4.60107 c 1.84563,-1.64908 1.93667,-1.93013 1.93667,-5.97885 0,-4.04872 -0.091,-4.32977 -1.93667,-5.97884 -1.06517,-0.95173 -2.46197,-1.73042 -3.104,-1.73042 -0.64203,0 -2.03883,0.77869 -3.104,1.73042 -1.84563,1.64907 -1.93667,1.93012 -1.93667,5.97884 0,4.04872 0.091,4.32977 1.93667,5.97885 1.06517,0.95172 2.46197,1.73041 3.104,1.73041 0.64203,0 2.03883,-0.77869 3.104,-1.73041 z m 72.13317,-2.93017 c 4.13617,-1.57163 7.06622,-4.00676 9.6775,-8.04285 7.3421,-11.34825 8.3438,-32.80857 2.49339,-53.41829 -3.06406,-10.79403 -7.94837,-19.16586 -15.39616,-26.38939 -9.52994,-9.24299 -16.00225,-20.3119 -19.31448,-33.03153 -1.97928,-7.60084 -1.88962,-20.07906 0.20109,-27.98746 1.00655,-3.80739 1.20361,-5.21572 0.62233,-4.44765 -0.46784,0.61819 -3.83731,7.1283 -7.48771,14.46693 -10.61342,21.33682 -18.16767,41.0914 -22.11045,57.81944 -1.60048,6.79036 -1.6765,7.76799 -1.66023,21.34872 0.0189,15.76222 0.79365,21.21263 4.45283,31.32526 5.47577,15.13303 16.45362,25.70896 29.62161,28.53712 5.85832,1.25821 15.35278,1.16764 18.90028,-0.1803 z m -50.7751,-7.82402 c 4.3302,-1.20255 1.7074,-4.11334 -3.70637,-4.11334 -2.98955,0 -5.9302,1.17839 -5.9302,2.37638 0,1.9695 5.336,2.93129 9.63657,1.73696 z m 85.32918,-2.88152 c 1.23595,-1.00081 1.39999,-1.63232 1.39999,-5.38958 0,-3.75725 -0.16404,-4.38876 -1.39999,-5.38957 -0.77,-0.62351 -1.60772,-1.13365 -1.86162,-1.13365 -0.2539,0 -1.09162,0.51014 -1.86162,1.13365 -1.23595,1.00081 -1.39999,1.63232 -1.39999,5.38957 0,3.75726 0.16404,4.38877 1.39999,5.38958 0.77,0.6235 1.60772,1.13364 1.86162,1.13364 0.2539,0 1.09162,-0.51014 1.86162,-1.13364 z m -99.09603,-19.92935 c 1.89127,-0.97802 2.69254,-2.99622 2.11041,-5.31561 -0.36928,-1.47134 -3.01102,-3.27239 -4.79986,-3.27239 -0.52164,0 -1.73189,0.40514 -2.68945,0.90031 -3.03561,1.56978 -3.10556,6.03972 -0.11986,7.65974 2.08946,1.13373 3.34804,1.14013 5.49876,0.0279 z m 92.53514,-1.22303 c 1.25192,-1.33262 1.43766,-2.09259 1.43766,-5.88242 0,-3.78983 -0.18574,-4.54981 -1.43766,-5.88243 -0.79073,-0.84168 -1.87836,-1.53032 -2.41697,-1.53032 -0.53861,0 -1.62624,0.68864 -2.41697,1.53032 -1.25192,1.33262 -1.43766,2.0926 -1.43766,5.88243 0,3.78983 0.18574,4.5498 1.43766,5.88242 0.79073,0.84168 1.87836,1.53032 2.41697,1.53032 0.53861,0 1.62624,-0.68864 2.41697,-1.53032 z m 15.40308,-1.15349 c 1.33733,-0.69157 1.74961,-1.3168 1.74961,-2.65336 0,-1.33656 -0.41228,-1.9618 -1.74961,-2.65337 -0.96229,-0.49761 -2.1764,-0.90475 -2.69804,-0.90475 -0.52164,0 -1.73575,0.40714 -2.69804,0.90475 -2.40174,1.242 -2.46397,4.007 -0.11881,5.27928 2.09899,1.13871 3.35386,1.14496 5.51489,0.0274 z m -5.32102,-16.84023 c 1.46746,-1.46746 1.73345,-2.20241 1.73345,-4.78977 0,-2.58736 -0.26599,-3.32232 -1.73345,-4.78978 -0.95339,-0.9534 -2.17478,-1.73344 -2.7142,-1.73344 -0.53942,0 -1.76081,0.78004 -2.71421,1.73344 -1.46745,1.46746 -1.73344,2.20242 -1.73344,4.78978 0,2.58736 0.26599,3.32231 1.73344,4.78977 0.9534,0.9534 2.17479,1.73345 2.71421,1.73345 0.53942,0 1.76081,-0.78005 2.7142,-1.73345 z m 88.90738,-27.6472 c 9.8581,-1.51089 14.90716,-4.03663 13.2843,-6.64531 -2.63908,-4.24224 -27.34181,-7.17565 -46.69227,-5.54464 -15.03929,1.26763 -22.63241,3.47602 -22.63241,6.58242 0,2.87883 7.44213,5.2407 20.47648,6.49853 7.86875,0.75935 28.10357,0.25239 35.5639,-0.891 z m -246.10327,-3.24361 c 14.10461,-1.05408 23.15473,-3.16387 24.09623,-5.61737 0.96318,-2.51 -3.85126,-4.41359 -15.33881,-6.06483 -4.91508,-0.7065 -11.15073,-0.96046 -23.58292,-0.96046 -12.43219,0 -18.66785,0.25396 -23.58293,0.96046 -11.48754,1.65124 -16.30198,3.55483 -15.3388,6.06483 1.70689,4.44811 29.92708,7.39753 53.74723,5.61737 z m 176.74939,-10.38492 c 1.33733,-0.69156 1.74961,-1.3168 1.74961,-2.65336 0,-1.33656 -0.41228,-1.9618 -1.74961,-2.65336 -0.96229,-0.49761 -2.1764,-0.90476 -2.69804,-0.90476 -0.52164,0 -1.73575,0.40715 -2.69804,0.90476 -2.40174,1.24199 -2.46397,4.00699 -0.11881,5.27927 2.09898,1.13872 3.35386,1.14496 5.51489,0.0274 z m 10.08134,-0.59302 c 1.33733,-0.69156 1.74961,-1.3168 1.74961,-2.65336 0,-1.33656 -0.41228,-1.9618 -1.74961,-2.65336 -0.96229,-0.49761 -2.17641,-0.90476 -2.69804,-0.90476 -0.52164,0 -1.73576,0.40715 -2.69804,0.90476 -2.40175,1.24199 -2.46397,4.00699 -0.11881,5.27927 2.09898,1.13872 3.35386,1.14496 5.51489,0.0274 z m 80.66687,-2.60774 c 1.46746,-1.46746 1.73345,-2.20242 1.73345,-4.78978 0,-2.58736 -0.26599,-3.32231 -1.73345,-4.78977 -0.95339,-0.9534 -2.17478,-1.73345 -2.7142,-1.73345 -0.53943,0 -1.76081,0.78005 -2.71421,1.73345 -1.46745,1.46746 -1.73344,2.20241 -1.73344,4.78977 0,2.58736 0.26599,3.32232 1.73344,4.78978 0.9534,0.95339 2.17478,1.73344 2.71421,1.73344 0.53942,0 1.76081,-0.78005 2.7142,-1.73344 z M 172.95213,268.8401 c 2.30778,-1.10609 2.32504,-3.44092 0.0335,-4.5392 -5.6688,-2.71698 -15.92832,-0.2457 -13.69283,3.2983 1.49603,2.37168 9.73779,3.12042 13.65928,1.2409 z M 479.205,266.8112 c 1.25192,-1.33262 1.43766,-2.0926 1.43766,-5.88243 0,-3.78983 -0.18574,-4.54981 -1.43766,-5.88242 -0.79073,-0.84168 -1.87836,-1.53033 -2.41697,-1.53033 -0.53861,0 -1.62624,0.68865 -2.41697,1.53033 -1.25192,1.33261 -1.43766,2.09259 -1.43766,5.88242 0,3.78983 0.18574,4.54981 1.43766,5.88243 0.79073,0.84168 1.87836,1.53032 2.41697,1.53032 0.53861,0 1.62624,-0.68864 2.41697,-1.53032 z m -327.84602,-2.57217 c 1.84563,-1.64908 1.93667,-1.93013 1.93667,-5.97885 0,-4.04872 -0.091,-4.32977 -1.93667,-5.97884 -1.06516,-0.95173 -2.46196,-1.73042 -3.104,-1.73042 -0.64203,0 -2.03883,0.77869 -3.10399,1.73042 -1.84563,1.64907 -1.93668,1.93012 -1.93668,5.97884 0,4.04872 0.091,4.32977 1.93668,5.97885 1.06516,0.95172 2.46196,1.73041 3.10399,1.73041 0.64204,0 2.03884,-0.77869 3.104,-1.73041 z m 311.70586,-0.33436 c 7.23374,-3.98822 11.48876,-12.22913 13.15685,-25.48151 1.3771,-10.94058 -0.60275,-27.9626 -4.53163,-38.96132 -3.29505,-9.22435 -6.40277,-14.21427 -13.5701,-21.78881 -3.68749,-3.89699 -7.89584,-8.77454 -9.35189,-10.83899 -11.07135,-15.69751 -14.68386,-33.59952 -10.29396,-51.0124 0.99376,-3.94185 1.12776,-5.09294 0.49727,-4.27183 -2.05049,2.67044 -15.06991,29.94378 -18.94645,39.68943 -9.66522,24.29835 -12.80281,37.51152 -12.73949,53.64915 0.11275,28.73379 9.19413,48.70139 25.91562,56.98174 6.46583,3.20182 10.90939,4.09301 19.56966,3.92482 6.6386,-0.12893 7.32954,-0.2558 10.29412,-1.89028 z m -240.17308,-1.18604 c 7.23375,-3.98822 11.48877,-12.22913 13.15686,-25.48151 1.37709,-10.94058 -0.60276,-27.9626 -4.53163,-38.96132 -3.29505,-9.22435 -6.40278,-14.21427 -13.57011,-21.78881 -3.68748,-3.89699 -7.89583,-8.77454 -9.35188,-10.83899 -11.07135,-15.69751 -14.68386,-33.59952 -10.29397,-51.0124 0.99376,-3.94185 1.12776,-5.09294 0.49727,-4.27183 -2.05049,2.67044 -15.0699,29.94378 -18.94645,39.68943 -9.66522,24.29835 -12.8028,37.51152 -12.73948,53.64915 0.11274,28.73379 9.19412,48.70139 25.91562,56.98174 6.46583,3.20182 10.90938,4.09301 19.56966,3.92482 6.63859,-0.12893 7.32953,-0.2558 10.29411,-1.89028 z m 18.54991,-0.84793 c 1.23595,-1.00081 1.39999,-1.63232 1.39999,-5.38958 0,-3.75725 -0.16404,-4.38876 -1.39999,-5.38957 -0.77,-0.62351 -1.60772,-1.13365 -1.86162,-1.13365 -0.25389,0 -1.09161,0.51014 -1.86162,1.13365 -1.23594,1.00081 -1.39998,1.63232 -1.39998,5.38957 0,3.75726 0.16404,4.38877 1.39998,5.38958 0.77001,0.6235 1.60773,1.13364 1.86162,1.13364 0.2539,0 1.09162,-0.51014 1.86162,-1.13364 z m 149.98094,-0.36414 c 1.33733,-0.69156 1.74961,-1.3168 1.74961,-2.65336 0,-1.33656 -0.41228,-1.9618 -1.74961,-2.65336 -0.96229,-0.49761 -2.1764,-0.90476 -2.69804,-0.90476 -0.52164,0 -1.73575,0.40715 -2.69804,0.90476 -2.40174,1.24199 -2.46397,4.007 -0.11881,5.27927 2.09899,1.13872 3.35386,1.14496 5.51489,0.0274 z m 18.38362,-4.15114 c 1.33733,-0.69156 1.74961,-1.3168 1.74961,-2.65336 0,-1.33656 -0.41228,-1.9618 -1.74961,-2.65336 -0.96229,-0.49761 -2.1764,-0.90476 -2.69804,-0.90476 -0.52164,0 -1.73575,0.40715 -2.69804,0.90476 -2.40174,1.24199 -2.46397,4.007 -0.11881,5.27927 2.09898,1.13872 3.35386,1.14496 5.51489,0.0274 z m -237.08917,-3.87058 c 4.33019,-1.20255 1.70739,-4.11334 -3.70638,-4.11334 -2.98955,0 -5.9302,1.17839 -5.9302,2.37638 0,1.9695 5.336,2.93129 9.63658,1.73696 z m 317.16229,-3.87122 c 1.25193,-1.33262 1.43767,-2.0926 1.43767,-5.88243 0,-3.78983 -0.18574,-4.5498 -1.43767,-5.88242 -0.79072,-0.84168 -1.87835,-1.53032 -2.41696,-1.53032 -0.53861,0 -1.62625,0.68864 -2.41697,1.53032 -1.25192,1.33262 -1.43766,2.09259 -1.43766,5.88242 0,3.78983 0.18574,4.54981 1.43766,5.88243 0.79072,0.84168 1.87836,1.53032 2.41697,1.53032 0.53861,0 1.62624,-0.68864 2.41696,-1.53032 z M 253.2644,244.86946 c 1.25192,-1.33262 1.43766,-2.09259 1.43766,-5.88243 0,-3.78983 -0.18574,-4.5498 -1.43766,-5.88242 -0.79072,-0.84168 -1.87836,-1.53032 -2.41697,-1.53032 -0.53861,0 -1.62624,0.68864 -2.41696,1.53032 -1.25193,1.33262 -1.43767,2.09259 -1.43767,5.88242 0,3.78984 0.18574,4.54981 1.43767,5.88243 0.79072,0.84168 1.87835,1.53032 2.41696,1.53032 0.53861,0 1.62625,-0.68864 2.41697,-1.53032 z m -94.3142,-14.19549 c 1.89127,-0.97802 2.69254,-2.99622 2.11041,-5.31561 -0.36928,-1.47134 -3.01102,-3.27239 -4.79986,-3.27239 -0.52163,0 -1.73188,0.40514 -2.68944,0.90031 -3.03562,1.56978 -3.10557,6.03972 -0.11986,7.65974 2.08945,1.13373 3.34804,1.14013 5.49875,0.028 z m 101.415,-5.93464 c 1.33733,-0.69156 1.74961,-1.3168 1.74961,-2.65336 0,-1.33656 -0.41228,-1.9618 -1.74961,-2.65336 -0.96229,-0.49762 -2.1764,-0.90476 -2.69804,-0.90476 -0.52164,0 -1.73575,0.40714 -2.69804,0.90476 -2.40174,1.24199 -2.46396,4.00699 -0.1188,5.27927 2.09898,1.13871 3.35386,1.14496 5.51488,0.0274 z m -16.58839,-2.01473 c 1.46746,-1.46746 1.73344,-2.20242 1.73344,-4.78977 0,-2.58736 -0.26598,-3.32232 -1.73344,-4.78978 -0.95339,-0.9534 -2.17478,-1.73344 -2.71421,-1.73344 -0.53942,0 -1.76081,0.78004 -2.7142,1.73344 -1.46746,1.46746 -1.73344,2.20242 -1.73344,4.78978 0,2.58735 0.26598,3.32231 1.73344,4.78977 0.95339,0.9534 2.17478,1.73345 2.7142,1.73345 0.53943,0 1.76082,-0.78005 2.71421,-1.73345 z M 110.0052,200.7122 c 12.26409,-1.16015 18.68013,-3.08654 18.68013,-5.60864 0,-5.60975 -34.952818,-8.26948 -54.690751,-4.16169 -5.572769,1.15979 -8.169366,2.48256 -8.169366,4.16169 0,4.46285 24.035964,7.51421 44.179987,5.60864 z m -64.89007,-3.48746 c 1.467458,-1.46745 1.733445,-2.20241 1.733445,-4.78977 0,-2.58736 -0.265987,-3.32232 -1.733445,-4.78977 -0.953392,-0.9534 -2.174782,-1.73345 -2.714204,-1.73345 -0.539423,0 -1.760813,0.78005 -2.714205,1.73345 -1.467458,1.46745 -1.733445,2.20241 -1.733445,4.78977 0,2.58736 0.265987,3.32232 1.733445,4.78977 0.953392,0.9534 2.174782,1.73345 2.714205,1.73345 0.539422,0 1.760812,-0.78005 2.714204,-1.73345 z m 13.046439,0 c 1.467457,-1.46745 1.733445,-2.20241 1.733445,-4.78977 0,-2.58736 -0.265988,-3.32232 -1.733445,-4.78977 -0.953392,-0.9534 -2.174782,-1.73345 -2.714205,-1.73345 -0.539423,0 -1.760812,0.78005 -2.714205,1.73345 -1.467457,1.46745 -1.733444,2.20241 -1.733444,4.78977 0,2.58736 0.265987,3.32232 1.733444,4.78977 0.953393,0.9534 2.174782,1.73345 2.714205,1.73345 0.539423,0 1.760813,-0.78005 2.714205,-1.73345 z m 41.382046,-16.93588 c 7.233745,-3.98823 11.488765,-12.22913 13.156855,-25.48151 1.3771,-10.94058 -0.60275,-27.9626 -4.53163,-38.96132 -3.29505,-9.22435 -6.40278,-14.21427 -13.570104,-21.78881 C 90.911249,90.160231 86.702901,85.282683 85.246853,83.218227 74.175503,67.520722 70.562992,49.618715 74.952887,32.205828 75.946646,28.263984 76.080645,27.112892 75.450158,27.934 73.399667,30.604444 60.380252,57.877781 56.503705,67.623427 46.838488,91.921779 43.700902,105.13495 43.764219,121.27258 c 0.112745,28.73379 9.194128,48.70139 25.915624,56.98174 6.465827,3.20182 10.909384,4.09301 19.569658,3.92481 6.638597,-0.12892 7.329536,-0.25579 10.294114,-1.89027 z m 264.274115,-0.29441 c 5.89167,-0.8698 12.1295,-2.84121 14.38074,-4.5449 5.0874,-3.85006 0.0858,-7.69149 -13.1947,-10.13404 -7.4656,-1.37308 -28.70862,-1.37308 -36.17421,0 -16.93664,3.115 -20.19761,8.85015 -7.28038,12.80418 3.48109,1.06558 6.13138,1.51495 15.87916,2.69241 3.42496,0.41371 21.933,-0.15975 26.38939,-0.81765 z m -237.4596,-0.9502 c 1.25193,-1.33262 1.43767,-2.0926 1.43767,-5.88243 0,-3.78983 -0.18574,-4.54981 -1.43767,-5.88242 -0.79072,-0.84168 -1.87835,-1.53033 -2.41696,-1.53033 -0.53861,0 -1.62625,0.68865 -2.41697,1.53033 -1.25192,1.33261 -1.43766,2.09259 -1.43766,5.88242 0,3.78983 0.18574,4.54981 1.43766,5.88243 0.79072,0.84168 1.87836,1.53032 2.41697,1.53032 0.53861,0 1.62624,-0.68864 2.41696,-1.53032 z m -78.2779,-2.5752 c 1.467458,-1.46746 1.733445,-2.20242 1.733445,-4.78978 0,-2.58736 -0.265987,-3.32232 -1.733445,-4.78977 -0.953392,-0.9534 -2.174782,-1.73345 -2.714205,-1.73345 -0.539423,0 -1.760812,0.78005 -2.714205,1.73345 -1.467457,1.46745 -1.733444,2.20241 -1.733444,4.78977 0,2.58736 0.265987,3.32232 1.733444,4.78978 0.953393,0.95339 2.174782,1.73344 2.714205,1.73344 0.539423,0 1.760813,-0.78005 2.714205,-1.73344 z m 94.32712,-4.73738 c 1.23594,-1.00081 1.39998,-1.63232 1.39998,-5.38958 0,-3.75725 -0.16404,-4.38876 -1.39998,-5.38957 -0.77001,-0.62351 -1.60773,-1.13365 -1.86162,-1.13365 -0.2539,0 -1.09162,0.51014 -1.86162,1.13365 -1.23595,1.00081 -1.39999,1.63232 -1.39999,5.38957 0,3.75726 0.16404,4.38877 1.39999,5.38958 0.77,0.6235 1.60772,1.13364 1.86162,1.13364 0.25389,0 1.09161,-0.51014 1.86162,-1.13364 z m 161.26374,-5.14084 c 1.25193,-1.33262 1.43767,-2.0926 1.43767,-5.88243 0,-3.78983 -0.18574,-4.54981 -1.43767,-5.88242 -0.79072,-0.84168 -1.87835,-1.53033 -2.41696,-1.53033 -0.53861,0 -1.62625,0.68865 -2.41697,1.53033 -1.25192,1.33261 -1.43766,2.09259 -1.43766,5.88242 0,3.78983 0.18574,4.54981 1.43766,5.88243 0.79072,0.84168 1.87836,1.53032 2.41697,1.53032 0.53861,0 1.62624,-0.68864 2.41696,-1.53032 z m 42.56882,-8.24371 c 7.23375,-3.98822 11.48876,-12.22912 13.15685,-25.48151 1.3771,-10.94057 -0.60275,-27.9626 -4.53162,-38.961318 -3.29506,-9.224354 -6.40278,-14.214267 -13.57011,-21.78881 -3.68749,-3.896989 -7.89583,-8.774536 -9.35188,-10.838993 C 320.8718,45.578984 317.25929,27.676977 321.64918,10.26409 322.64294,6.3222459 322.77694,5.1711538 322.14645,5.9922624 320.09596,8.662706 307.07655,35.936043 303.2,45.68169 c -9.66522,24.298351 -12.8028,37.511517 -12.73949,53.64915 0.11275,28.73379 9.19413,48.70139 25.91563,56.98174 6.46582,3.20182 10.90938,4.09301 19.56965,3.92482 6.6386,-0.12893 7.32954,-0.2558 10.29412,-1.89028 z m -217.47202,-2.03397 c 1.23595,-1.00081 1.39999,-1.63232 1.39999,-5.38958 0,-3.75725 -0.16404,-4.38876 -1.39999,-5.38957 -0.77,-0.62351 -1.60773,-1.13365 -1.86162,-1.13365 -0.2539,0 -1.09162,0.51014 -1.86162,1.13365 -1.23595,1.00081 -1.39999,1.63232 -1.39999,5.38957 0,3.75726 0.16404,4.38877 1.39999,5.38958 0.77,0.6235 1.60772,1.13364 1.86162,1.13364 0.25389,0 1.09162,-0.51014 1.86162,-1.13364 z m 159.48469,-0.39668 c 1.25192,-1.33262 1.43766,-2.0926 1.43766,-5.88243 0,-3.78983 -0.18574,-4.5498 -1.43766,-5.88242 -0.79073,-0.84168 -1.87836,-1.53033 -2.41697,-1.53033 -0.53861,0 -1.62624,0.68865 -2.41697,1.53033 -1.25192,1.33262 -1.43766,2.09259 -1.43766,5.88242 0,3.78983 0.18574,4.54981 1.43766,5.88243 0.79073,0.84168 1.87836,1.53032 2.41697,1.53032 0.53861,0 1.62624,-0.68864 2.41697,-1.53032 z m 90.73205,-1.18604 c 1.25192,-1.33262 1.43766,-2.0926 1.43766,-5.88243 0,-3.78983 -0.18574,-4.5498 -1.43766,-5.88242 -0.79073,-0.84168 -1.87836,-1.53032 -2.41697,-1.53032 -0.53861,0 -1.62624,0.68864 -2.41697,1.53032 -1.25192,1.33262 -1.43766,2.09259 -1.43766,5.88242 0,3.78983 0.18574,4.54981 1.43766,5.88243 0.79073,0.84168 1.87836,1.53032 2.41697,1.53032 0.53861,0 1.62624,-0.68864 2.41697,-1.53032 z m -7.11624,-13.04644 c 1.25192,-1.33262 1.43766,-2.09259 1.43766,-5.88242 0,-3.78983 -0.18574,-4.54981 -1.43766,-5.88243 -0.79072,-0.84168 -1.87836,-1.53032 -2.41697,-1.53032 -0.53861,0 -1.62624,0.68864 -2.41696,1.53032 -1.25193,1.33262 -1.43767,2.0926 -1.43767,5.88243 0,3.78983 0.18574,4.5498 1.43767,5.88242 0.79072,0.84168 1.87835,1.53032 2.41696,1.53032 0.53861,0 1.62625,-0.68864 2.41697,-1.53032 z m -78.87093,-1.98218 c 1.46746,-1.46746 1.73345,-2.20242 1.73345,-4.78977 0,-2.58736 -0.26599,-3.32232 -1.73345,-4.78978 -2.179,-2.179 -3.2494,-2.179 -5.42841,0 -1.46745,1.46746 -1.73344,2.20242 -1.73344,4.78978 0,2.58735 0.26599,3.32231 1.73344,4.78977 0.9534,0.9534 2.17479,1.73345 2.71421,1.73345 0.53942,0 1.76081,-0.78005 2.7142,-1.73345 z m -12.46958,-2.13641 c 1.33733,-0.69157 1.74961,-1.3168 1.74961,-2.65336 0,-1.33656 -0.41228,-1.9618 -1.74961,-2.65337 -0.96229,-0.49761 -2.1764,-0.90475 -2.69804,-0.90475 -0.52164,0 -1.73575,0.40714 -2.69804,0.90475 -2.40174,1.242 -2.46397,4.007 -0.1188,5.27928 2.09898,1.13871 3.35386,1.14496 5.51488,0.0275 z m 102.59245,-5.33718 c 1.33733,-0.69156 1.74961,-1.3168 1.74961,-2.65336 0,-1.33656 -0.41228,-1.9618 -1.74961,-2.65336 -0.96229,-0.49762 -2.1764,-0.90476 -2.69804,-0.90476 -0.52164,0 -1.73575,0.40714 -2.69804,0.90476 -2.40174,1.24199 -2.46397,4.00699 -0.1188,5.27927 2.09898,1.13871 3.35386,1.14496 5.51488,0.0274 z m -12.43725,-11.50305 c 1.46745,-1.46746 1.73344,-2.20241 1.73344,-4.78977 0,-2.58736 -0.26599,-3.32232 -1.73344,-4.78978 -2.17901,-2.179 -3.24941,-2.179 -5.42841,0 -1.46746,1.46746 -1.73345,2.20242 -1.73345,4.78978 0,2.58736 0.26599,3.32231 1.73345,4.78977 0.95339,0.9534 2.17478,1.73345 2.7142,1.73345 0.53942,0 1.76081,-0.78005 2.71421,-1.73345 z"
       id="path540" />
    <text
       xml:space="preserve"
       id="text540"
       style="font-size:37.3333px;white-space:pre;shape-inside:url(#rect541);display:inline;fill:#24221c;fill-opacity:0.690196;stroke:#d40000;stroke-width:6;stroke-dasharray:none;stroke-opacity:0.690196"><tspan
         x="109.70898"
         y="75.572022"
         id="tspan2"><tspan
           style="stroke:#2f00d4"
           id="tspan1">Paint</tspan></tspan></text>
    <text
       xml:space="preserve"
       id="text541"
       style="font-size:37.3333px;white-space:pre;shape-inside:url(#rect542);display:inline;fill:#24221c;fill-opacity:0.690196;stroke:#d40000;stroke-width:5;stroke-dasharray:none;stroke-opacity:0.690196"><tspan
         x="211.70898"
         y="224.41968"
         id="tspan3">The</tspan></text>
    <text
       xml:space="preserve"
       id="text542"
       style="font-size:37.3333px;white-space:pre;shape-inside:url(#rect543);display:inline;fill:#1c2423;fill-opacity:0.690196;stroke:#d40000;stroke-width:5;stroke-dasharray:none;stroke-opacity:0.690196"><tspan
         x="335.05664"
         y="375.04663"
         id="tspan5"><tspan
           style="fill:#201c24;stroke:#6dd400"
           id="tspan4">Ground</tspan></tspan></text>
  </g>
</svg>
